<?xml version="1.0" encoding="UTF-8" standalone="no"?>
<!-- Created with Inkscape (http://www.inkscape.org/) -->

<svg
   version="1.1"
   id="svg343"
   width="80"
   height="80"
   viewBox="0 0 80 80"
   sodipodi:docname="icon.svg"
   inkscape:version="1.1 (ce6663b3b7, 2021-05-25)"
   xmlns:inkscape="http://www.inkscape.org/namespaces/inkscape"
   xmlns:sodipodi="http://sodipodi.sourceforge.net/DTD/sodipodi-0.dtd"
   xmlns="http://www.w3.org/2000/svg"
   xmlns:svg="http://www.w3.org/2000/svg">
  <defs
     id="defs347" />
  <sodipodi:namedview
     id="namedview345"
     pagecolor="#ffffff"
     bordercolor="#666666"
     borderopacity="1.0"
     inkscape:pageshadow="2"
     inkscape:pageopacity="0.0"
     inkscape:pagecheckerboard="0"
     showgrid="false"
     inkscape:zoom="7.327394"
     inkscape:cx="2.1835867"
     inkscape:cy="40.532828"
     inkscape:window-width="1920"
     inkscape:window-height="1015"
     inkscape:window-x="0"
     inkscape:window-y="0"
     inkscape:window-maximized="1"
     inkscape:current-layer="g349" />
  <g
     inkscape:groupmode="layer"
     inkscape:label="Image"
     id="g349">
    <g
       id="g2971"
       transform="translate(-0.02409787,-0.13151387)">
      <path
         style="fill:#fdfdfd"
         d="M 0.17112474,40.110681 V 0.11068122 h 40.00000026 40 v 39.99999978 40 h -40 -40.00000026 z"
         id="path3145" />
      <path
         style="fill:#f9f9f9"
         d="M 0.17112474,40.110681 V 0.11068122 h 40.00000026 40 v 39.99999978 40 h -40 H 0.17112474 Z M 17.535201,56.47111 c 0.349758,-2.551764 0.684609,-7.839264 0.744113,-11.75 l 0.108188,-7.110429 1.26196,7 c 0.694078,3.85 1.572966,9.1375 1.953084,11.75 0.640687,4.403348 0.900673,4.75 3.562464,4.75 3.390159,0 3.25041,0.381726 5.674505,-15.5 l 1.83161,-12 0.27822,13.75 0.278219,13.75 h 4.471781 4.47178 v -21 -21 h -6.875 c -7.825806,0 -7.264452,-0.766692 -8.691312,11.87052 -0.422151,3.738854 -1.030192,5.804357 -1.471895,5 -0.603639,-1.09925 -2.961793,-14.086781 -2.961793,-16.312073 0,-0.307146 -2.925,-0.558447 -6.5,-0.558447 H 9.1711247 v 21 21 h 3.8640763 c 3.838823,0 3.868232,-0.03032 4.5,-4.639571 z"
         id="path3143" />
      <path
         style="fill:#f5f5f5"
         d="M 0.17112474,40.110681 V 0.11068122 h 40.00000026 40 v 39.99999978 40 h -40 -40.00000026 z m 17.35815226,17.25 c 0.34091,-2.0625 0.673474,-7.35 0.739031,-11.75 l 0.119194,-8 1.26196,7 c 0.694078,3.85 1.572966,9.1375 1.953084,11.75 0.64373,4.424263 0.891345,4.75 3.6108,4.75 3.358794,0 3.27256,0.22918 5.40293,-14.35912 1.974982,-13.52423 2.554849,-13.140098 2.554849,1.692453 v 12.666667 h 4.5 4.5 v -21 -21 h -6.875 c -7.825806,0 -7.264452,-0.766692 -8.691312,11.87052 -0.422151,3.738854 -1.030192,5.804357 -1.471895,5 -0.603639,-1.09925 -2.961793,-14.086781 -2.961793,-16.312073 0,-0.307146 -2.925,-0.558447 -6.5,-0.558447 H 9.1711247 v 21 21 h 3.8691583 c 3.694166,0 3.897191,-0.169602 4.488994,-3.75 z"
         id="path3141" />
      <path
         style="fill:#f2f2f2"
         d="M 0.17112474,40.110681 V 0.11068122 h 40.00000026 40 v 39.99999978 40 h -40 -40.00000026 z m 17.37500026,17.875 c 0.34375,-1.71875 0.675329,-7.00625 0.736842,-11.75 0.123252,-9.504933 0.190607,-9.321719 2.98697,8.125 1.037071,6.470367 1.197997,6.75 3.884551,6.75 3.396286,0 3.46167,-0.156073 5.036121,-12.021304 1.868084,-14.078076 2.915527,-14.159275 2.950107,-0.228696 l 0.03041,12.25 h 4.5 4.5 v -21 -21 h -6.875 c -7.825806,0 -7.264452,-0.766692 -8.691312,11.87052 -0.788959,6.987544 -1.804842,6.498534 -2.847153,-1.37052 -1.480229,-11.175165 -0.955144,-10.5 -8.16599,-10.5 H 9.1711247 v 21 21 h 3.8750003 c 3.54,0 3.929032,-0.270161 4.5,-3.125 z"
         id="path3139" />
      <path
         style="fill:#ededed"
         d="M 0.17112474,40.110681 V 0.11068122 h 40.00000026 40 v 39.99999978 40 h -40 -40.00000026 z m 17.36971426,18.75 c 0.331637,-1.2375 0.65945,-6.525 0.728473,-11.75 0.137135,-10.380995 0.19745,-10.234601 3.010056,7.305916 l 1.091323,6.805917 3.150217,-0.305917 3.150217,-0.305916 1.5,-10.678134 c 2.019488,-14.376245 3,-14.535916 3,-0.488533 v 11.666667 h 4.5 4.5 v -21 -21 h -6.875 c -7.825806,0 -7.264452,-0.766692 -8.691312,11.87052 -0.788959,6.987544 -1.804842,6.498534 -2.847153,-1.37052 -1.488981,-11.241239 -0.877213,-10.5 -8.66599,-10.5 H 8.1711247 v 21 21 h 4.3833693 c 3.700389,0 4.477319,-0.350576 4.986345,-2.25 z"
         id="path3137" />
      <path
         style="fill:#eaeaea"
         d="M 0.17112474,40.110681 V 0.11068122 h 40.00000026 40 v 39.99999978 40 h -40 -40.00000026 z m 18.11184226,9.25 c 0.11978,-12.583916 0.185707,-12.472675 2.996401,5.055916 l 1.091323,6.805917 3.150217,-0.305917 3.150217,-0.305916 1.5,-10.838912 c 1.828977,-13.216079 3,-12.82356 3,1.005579 v 10.333333 h 4.5 4.5 v -21 -21 h -6.875 c -7.825806,0 -7.264452,-0.766692 -8.691312,11.87052 -0.788959,6.987544 -1.804842,6.498534 -2.847153,-1.37052 -1.488981,-11.241239 -0.877213,-10.5 -8.66599,-10.5 H 8.1711247 v 21 21 h 5.0000003 5 z"
         id="path3135" />
      <path
         style="fill:#e3e3e3"
         d="M 0.17112474,40.110681 V 0.11068122 h 40.00000026 40 v 39.99999978 40 h -40 -40.00000026 z m 18.11184226,9.25 c 0.11978,-12.583916 0.185707,-12.472675 2.996401,5.055916 l 1.091323,6.805917 3.150217,-0.305917 3.150217,-0.305916 1.522775,-11 c 1.773816,-12.81343 2.977225,-11.971961 2.977225,2.081787 v 9.418213 h 4.5 4.5 v -21 -21 h -7 c -4.893271,0 -7.022608,0.376202 -7.075118,1.25 -0.04131,0.6875 -0.634027,4.85 -1.31714,9.25 l -1.242022,8 -1.112927,-5.5 c -0.612109,-3.025 -1.389787,-7.1875 -1.728173,-9.25 l -0.615246,-3.75 H 15.125812 8.1711247 v 21 21 h 5.0000003 5 z"
         id="path3133" />
      <path
         style="fill:#dedede"
         d="M 0.17112474,40.110681 V 0.11068122 h 40.00000026 40 v 39.99999978 40 h -40 -40.00000026 z m 18.11761926,9.25 c 0.09873,-9.863041 0.251669,-10.947039 0.952342,-6.75 0.459097,2.75 1.351071,8.062662 1.982164,11.805916 l 1.147441,6.805917 3.150217,-0.305917 3.150217,-0.305916 1.537716,-11 c 1.739631,-12.444394 2.962284,-10.948212 2.962284,3.625 v 7.875 h 4.5 4.5 v -21 -21 h -7 c -4.893271,0 -7.022608,0.376202 -7.075118,1.25 -0.04131,0.6875 -0.634027,4.85 -1.31714,9.25 l -1.242022,8 -1.112927,-5.5 c -0.612109,-3.025 -1.389787,-7.1875 -1.728173,-9.25 l -0.615246,-3.75 H 15.125812 8.1711247 v 21 21 h 5.0000003 5 z"
         id="path3131" />
      <path
         style="fill:#d9d9d9"
         d="M 0.17112474,40.110681 V 0.11068122 h 40.00000026 40 v 39.99999978 40 h -40 -40.00000026 z m 18.10178226,9.25 0.101781,-11.75 1.378775,8.5 c 2.684667,16.550683 2.145428,15.155577 5.724072,14.809151 l 3.19359,-0.309151 1.540501,-11 c 1.692913,-12.088305 2.959499,-9.888707 2.959499,5.139571 v 6.360429 h 4.5 4.5 v -21 -21 h -7 c -4.893271,0 -7.022608,0.376202 -7.075118,1.25 -0.04131,0.6875 -0.634027,4.85 -1.31714,9.25 l -1.242022,8 -1.112927,-5.5 c -0.612109,-3.025 -1.389787,-7.1875 -1.728173,-9.25 l -0.615246,-3.75 H 15.125812 8.1711247 v 21 21 h 5.0000003 5 z"
         id="path3129" />
      <path
         style="fill:#d5d5d5"
         d="M 0.17112474,40.110681 V 0.11068122 h 40.00000026 40 v 39.99999978 40 h -40 -40.00000026 z m 18.10178226,9.25 0.101781,-11.75 1.378775,8.5 c 2.684667,16.550683 2.145428,15.155577 5.724072,14.809151 l 3.19359,-0.309151 1.541458,-11 1.541458,-11 0.708542,6.396691 c 0.389698,3.51818 0.708542,8.58068 0.708542,11.25 v 4.853309 h 4.5 4.5 v -21 -21 h -7 c -4.893271,0 -7.022608,0.376202 -7.075118,1.25 -0.04131,0.6875 -0.630952,4.85 -1.310305,9.25 l -1.235189,8 -1.189694,-5.299221 c -0.654332,-2.914572 -1.189694,-6.365267 -1.189694,-7.668213 0,-5.00694 -0.770211,-5.532566 -8.106989,-5.532566 H 8.1711247 v 21 21 h 5.0000003 5 z"
         id="path3127" />
      <path
         style="fill:#d1d1d1"
         d="M 0.17112474,40.110681 V 0.11068122 h 40.00000026 40 v 39.99999978 40 h -40 -40.00000026 z m 18.10897126,9.75 0.10897,-11.25 1.386735,8 c 0.762705,4.4 1.639053,9.489118 1.94744,11.309151 0.512555,3.024987 0.834945,3.282604 3.754294,3 l 3.19359,-0.309151 1.469864,-10.5 c 1.597589,-11.412404 2.719153,-9.411333 2.94253,5.25 l 0.08761,5.75 h 4.5 4.5 v -21 -21 h -6.891592 c -7.844001,0 -7.431896,-0.514047 -8.685908,10.834545 -0.804843,7.283689 -2.015679,6.537421 -2.962617,-1.825933 -1.058691,-9.350353 -0.73521,-9.008612 -8.527271,-9.008612 H 8.1711247 v 21 21 h 5.0000003 5 z"
         id="path3125" />
      <path
         style="fill:#cecece"
         d="M 0.17112474,40.110681 V 0.11068122 h 40.00000026 40 v 39.99999978 40 h -40 -40.00000026 z m 18.12190526,9.75 0.121904,-11.25 1.328808,8 c 2.593569,15.614418 2.149008,14.5 5.784299,14.5 h 3.26629 l 1.414805,-10.75 1.414805,-10.75 0.921364,10.75 0.921365,10.75 h 4.352227 4.352228 v -21 -21 h -6.891592 c -7.844001,0 -7.431896,-0.514047 -8.685908,10.834545 -0.804843,7.283689 -2.015679,6.537421 -2.962617,-1.825933 -1.058691,-9.350353 -0.73521,-9.008612 -8.527271,-9.008612 H 8.1711247 v 21 21 h 5.0000003 5 z"
         id="path3123" />
      <path
         style="fill:#cacaca"
         d="M 0.17112474,40.110681 V 0.11068122 h 40.00000026 40 v 39.99999978 40 h -40 -40.00000026 z m 18.12190526,9.75 0.121904,-11.25 1.328808,8 c 2.593569,15.614418 2.149008,14.5 5.784299,14.5 h 3.26629 l 1.404745,-10.75 1.404744,-10.75 0.906537,10.75 0.906537,10.75 h 4.377115 4.377116 v -21 -21 h -6.891592 c -7.846372,0 -7.431241,-0.519298 -8.689978,10.87052 -0.791773,7.164446 -1.840319,6.483228 -2.879147,-1.87052 -1.163679,-9.357731 -0.821582,-9 -8.606671,-9 H 8.1711247 v 21 21 h 5.0000003 5 z"
         id="path3121" />
      <path
         style="fill:#c6c6c6"
         d="M 0.17112474,40.110681 V 0.11068122 h 40.00000026 40 v 39.99999978 40 h -40 -40.00000026 z m 18.12190526,9.75 0.121904,-11.25 1.328808,8 c 2.593425,15.613552 2.14937,14.5 5.782207,14.5 h 3.264197 l 1.363401,-10.731266 c 1.558238,-12.264828 1.636457,-12.234594 2.538641,0.981266 l 0.665586,9.75 h 4.406676 4.406675 v -21 -21 h -6.891592 c -7.846372,0 -7.431241,-0.519298 -8.689978,10.87052 -0.791773,7.164446 -1.840319,6.483228 -2.879147,-1.87052 -1.163679,-9.357731 -0.821582,-9 -8.606671,-9 H 8.1711247 v 21 21 h 5.0000003 5 z"
         id="path3119" />
      <path
         style="fill:#c2c2c2"
         d="M 0.17112474,40.110681 V 0.11068122 h 40.00000026 40 v 39.99999978 40 h -40 -40.00000026 z m 18.12190526,9.75 0.121904,-11.25 1.328808,8 c 2.593425,15.613552 2.14937,14.5 5.782207,14.5 h 3.264197 l 1.438999,-10.75 c 0.80214,-5.992372 1.547695,-9.201005 1.684601,-7.25 0.135082,1.925 0.511647,6.7625 0.836811,10.75 l 0.591208,7.25 h 4.41468 4.41468 v -21 -21 h -6.891592 c -7.846372,0 -7.431241,-0.519298 -8.689978,10.87052 -0.791773,7.164446 -1.840319,6.483228 -2.879147,-1.87052 -1.163679,-9.357731 -0.821582,-9 -8.606671,-9 H 8.1711247 v 21 21 h 5.0000003 5 z"
         id="path3117" />
      <path
         style="fill:#bdbdbd"
         d="M 0.17112474,40.110681 V 0.11068122 h 40.00000026 40 v 39.99999978 40 h -40 -40.00000026 z m 18.10252226,9.75 0.102523,-11.25 1.33752,8 c 2.601911,15.562598 2.17463,14.5 5.830582,14.5 h 3.282521 l 1.538301,-10.75 C 31.81896,40.200727 31.910742,39.94607 32.03726,45.72111 c 0.07363,3.360736 0.420031,8.198236 0.769789,10.75 l 0.635924,4.639571 h 4.364076 4.364076 v -21 -21 h -6.891592 c -7.851847,0 -7.429716,-0.531552 -8.699474,10.954449 -0.781283,7.06735 -1.710417,6.246552 -2.911916,-2.572388 -1.186704,-8.710345 -0.851279,-8.382061 -8.564406,-8.382061 H 8.1711247 v 21 21 h 5.0000003 5 z"
         id="path3115" />
      <path
         style="fill:#b9b9b9"
         d="M 0.17112474,40.110681 V 0.11068122 h 40.00000026 40 v 39.99999978 40 h -40 -40.00000026 z m 18.10252226,9.75 0.102523,-11.25 1.33752,8 c 2.601911,15.562598 2.17463,14.5 5.830582,14.5 h 3.282521 l 1.538301,-10.75 1.538301,-10.75 0.133865,7.625 c 0.226939,12.926539 0.620601,13.875 5.758865,13.875 h 4.375 v -21 -21 h -6.891592 c -7.851847,0 -7.429716,-0.531552 -8.699474,10.954449 -0.827285,7.483474 -1.873361,6.068532 -3.145071,-4.254083 l -0.763863,-6.200366 -7.25,-0.29381 -7.2500003,-0.293809 v 21.043809 21.04381 h 5.0000003 5 z"
         id="path3113" />
      <path
         style="fill:#b4b4b4"
         d="M 0.17112474,40.110681 V 0.11068122 h 40.00000026 40 v 39.99999978 40 h -40 -40.00000026 z m 18.10848526,9.75 0.108486,-11.25 1.826767,11 c 1.004721,6.05 1.855903,11.1125 1.891514,11.25 0.03561,0.1375 1.562273,0.25 3.392582,0.25 h 3.327834 l 1.538301,-10.75 1.538301,-10.75 0.133865,9.168213 c 0.174599,11.958025 0.348598,12.331787 5.740854,12.331787 h 4.393011 v -21 -21 h -6.932612 c -7.932184,0 -7.545779,-0.468437 -8.647744,10.4836 -0.805614,8.006712 -1.858855,6.744059 -3.155781,-3.783234 l -0.763863,-6.200366 -7.25,-0.29381 -7.2500003,-0.293809 v 21.043809 21.04381 h 5.0000003 5 z"
         id="path3111" />
      <path
         style="fill:#aaaaaa"
         d="M 0.17112474,40.110681 V 0.11068122 h 40.00000026 40 v 39.99999978 40 h -40 -40.00000026 z m 18.10848526,9.75 0.108486,-11.25 1.826767,11 c 1.004721,6.05 1.855903,11.1125 1.891514,11.25 0.03561,0.1375 1.562273,0.25 3.392582,0.25 h 3.327834 l 1.538301,-10.75 1.538301,-10.75 0.133865,10.75 0.133865,10.75 h 5 5 v -21 -21 h -6.932612 c -7.932184,0 -7.545779,-0.468437 -8.647744,10.4836 -0.805614,8.006712 -1.858855,6.744059 -3.155781,-3.783234 l -0.763863,-6.200366 -7.25,-0.29381 -7.2500003,-0.293809 v 21.043809 21.04381 h 5.0000003 5 z"
         id="path3109" />
      <path
         style="fill:#a1a1a1"
         d="M 0.17112474,40.110681 V 0.11068122 h 40.00000026 40 v 39.99999978 40 h -40 -40.00000026 z m 18.11361526,9.75 0.113615,-11.25 1.371853,9 c 2.108942,13.835647 1.966035,13.5 5.747803,13.5 h 3.308782 l 1.538301,-10.75 1.538301,-10.75 0.133865,10.75 0.133865,10.75 h 5 5 v -21 -21 h -6.932612 c -7.919067,0 -7.549211,-0.441351 -8.62758,10.295317 -0.838146,8.344905 -1.267141,8.045758 -2.810227,-1.959628 l -1.208463,-7.835689 -7.210559,-0.29381 -7.2105593,-0.293809 v 21.043809 21.04381 h 5.0000003 5 z"
         id="path3107" />
      <path
         style="fill:#9b9b9b"
         d="M 0.17112474,40.110681 V 0.11068122 h 40.00000026 40 v 39.99999978 40 h -40 -40.00000026 z m 18.11920126,10.25 0.119201,-10.75 1.807195,10.5 c 0.993957,5.775 1.840316,10.6125 1.880799,10.75 0.04048,0.1375 1.593179,0.25 3.450437,0.25 h 3.376833 l 1.487656,-10.75 1.487656,-10.75 0.135511,10.75 0.135511,10.75 h 5 5 v -21 -21 h -6.893011 c -7.868228,0 -7.594529,-0.298807 -8.636231,9.428458 -0.868637,8.111219 -2.106964,7.028645 -3.063816,-2.678458 l -0.665363,-6.75 H 15.541915 8.1711247 v 21 21 h 5.0000003 5 z"
         id="path3105" />
      <path
         style="fill:#939393"
         d="M 0.17112474,40.110681 V 0.11068122 h 40.00000026 40 v 39.99999978 40 h -40 -40.00000026 z m 18.10178226,10.25 0.101781,-10.75 1.388557,8.5 c 2.195625,13.440435 1.998634,13 5.814436,13 h 3.368452 l 1.362496,-10.25 1.362496,-10.25 0.284983,10.25 0.284983,10.25 h 4.965017 4.965017 V 40.066871 19.023062 l -7.25,0.293809 -7.25,0.29381 -1.039152,8 -1.039153,8 -1.210847,-5.299221 c -0.665967,-2.914572 -1.210848,-6.627072 -1.210848,-8.25 v -2.950779 h -7.5 -7.5000003 v 21 21 h 5.0000003 5 z"
         id="path3103" />
      <path
         style="fill:#6487bd"
         d="M 0.17112474,40.110681 V 0.11068122 h 40.00000026 40 v 39.99999978 40 h -40 -40.00000026 z m 18.11503426,10.25 0.115035,-10.75 1.647128,10.5 1.647128,10.5 3.593987,0.301789 3.593986,0.30179 1.517508,-10.30179 1.517507,-10.301789 0.126343,10.25 0.126344,10.25 h 5 5 V 40.066871 19.023062 l -7.25,0.293809 -7.25,0.29381 -1.02163,8 C 25.543484,36.271442 24.837536,35.632145 23.566651,24.8189 L 22.895762,19.110681 H 15.533444 8.1711247 v 21 21 h 5.0000003 5 z"
         id="path3101" />
      <path
         style="fill:#6285ba"
         d="M 0.17112474,40.110681 V 0.11068122 h 40.00000026 40 v 39.99999978 40 h -40 -40.00000026 z m 18.11503426,10.25 0.115035,-10.75 1.647128,10.5 1.647128,10.5 3.593987,0.301789 3.593986,0.30179 1.517508,-10.30179 1.517507,-10.301789 0.126343,10.25 0.126344,10.25 h 5 5 V 40.066871 19.023062 l -7.25,0.293809 -7.25,0.29381 -1.02163,8 C 25.543484,36.271442 24.837536,35.632145 23.566651,24.8189 L 22.895762,19.110681 H 15.533444 8.1711247 v 21 21 h 5.0000003 5 z m 51.173808,7.903134 c 5.916967,-5.923572 2.462939,-17.178361 -6.968133,-22.705337 -4.314785,-2.528633 -6.140805,-5.868278 -4.93158,-9.019468 0.970385,-2.528783 4.072171,-1.24652 4.427293,1.830222 0.459668,3.982513 9.183578,4.273718 9.183578,0.306549 0,-4.142937 -1.708504,-7.204565 -4.665875,-8.361219 -17.758493,-6.945502 -26.439834,11.14486 -10.539625,21.962696 6.524333,4.438884 8.889906,10.866089 4.604575,12.510525 -2.055196,0.788653 -3.364369,-1.311085 -3.383762,-5.427102 -0.01506,-3.197441 -0.09034,-3.25 -4.654604,-3.25 h -4.639291 l 0.604716,5.105876 c 0.960577,8.110576 3.607912,10.064647 12.962708,9.568133 4.372548,-0.232077 6.329821,-0.848832 8,-2.520875 z"
         id="path3099" />
      <path
         style="fill:#6082b8"
         d="M 0.17112474,40.110681 V 0.11068122 h 40.00000026 40 v 39.99999978 40 h -40 -40.00000026 z m 18.11503426,10.25 0.115035,-10.75 1.647128,10.5 1.647128,10.5 3.593987,0.301789 3.593986,0.30179 1.517508,-10.30179 1.517507,-10.301789 0.126343,10.25 0.126344,10.25 h 5 5 V 40.066871 19.023062 l -7.25,0.293809 -7.25,0.29381 -1.02163,8 C 25.543484,36.271442 24.837536,35.632145 23.566651,24.8189 L 22.895762,19.110681 H 15.533444 8.1711247 v 21 21 h 5.0000003 5 z m 51.656892,7.228763 c 5.445262,-6.330495 1.961948,-16.590525 -7.52755,-22.172243 -4.25831,-2.504735 -6.046333,-5.774272 -4.855247,-8.878191 0.970385,-2.528783 4.072171,-1.24652 4.427293,1.830222 0.459668,3.982513 9.183578,4.273718 9.183578,0.306549 0,-4.142937 -1.708504,-7.204565 -4.665875,-8.361219 -17.758493,-6.945502 -26.439834,11.14486 -10.539625,21.962696 6.524333,4.438884 8.889906,10.866089 4.604575,12.510525 -2.055196,0.788653 -3.364369,-1.311085 -3.383762,-5.427102 -0.015,-3.182917 -0.108198,-3.25 -4.515313,-3.25 h -4.5 l 0.01474,3.75 c 0.04209,10.705546 14.71369,15.917313 21.757184,7.728763 z"
         id="path3097" />
      <path
         style="fill:#6182b3"
         d="M 0.17112474,40.110681 V 0.11068122 h 40.00000026 40 v 39.99999978 40 h -40 -40.00000026 z m 18.11503426,10.25 0.115035,-10.75 1.647128,10.5 1.647128,10.5 3.593987,0.301789 3.593986,0.30179 1.517508,-10.30179 1.517507,-10.301789 0.126343,10.25 0.126344,10.25 h 5 5 V 40.066871 19.023062 l -7.25,0.293809 -7.25,0.29381 -1.02163,8 C 25.543484,36.271442 24.837536,35.632145 23.566651,24.8189 L 22.895762,19.110681 H 15.533444 8.1711247 v 21 21 h 5.0000003 5 z m 51.095626,7.693186 c 6.206219,-6.206219 3.070519,-16.451668 -6.959351,-22.73868 -4.299814,-2.695248 -6.010656,-5.783297 -4.86218,-8.776177 0.970385,-2.528783 4.072171,-1.24652 4.427293,1.830222 0.459668,3.982513 9.183578,4.273718 9.183578,0.306549 0,-4.138752 -1.707131,-7.203373 -4.665875,-8.376124 -17.716233,-7.022148 -26.436634,11.161942 -10.539625,21.977601 6.524333,4.438884 8.889906,10.866089 4.604575,12.510525 -2.055196,0.788653 -3.364369,-1.311085 -3.383762,-5.427102 -0.015,-3.182917 -0.108198,-3.25 -4.515313,-3.25 h -4.5 l 0.01474,3.75 c 0.0418,10.632018 13.53958,15.849525 21.195918,8.193186 z"
         id="path3095" />
      <path
         style="fill:#5e80b1"
         d="M 0.17112474,40.110681 V 0.11068122 h 40.00000026 40 v 39.99999978 40 h -40 -40.00000026 z m 18.11503426,10.25 0.115035,-10.75 1.647128,10.5 1.647128,10.5 3.593987,0.301789 3.593986,0.30179 1.517508,-10.30179 1.517507,-10.301789 0.126343,10.25 0.126344,10.25 h 5 5 V 40.066871 19.023062 l -7.25,0.293809 -7.25,0.29381 -1.02163,8 C 25.543484,36.271442 24.837536,35.632145 23.566651,24.8189 L 22.895762,19.110681 H 15.533444 8.1711247 v 21 21 h 5.0000003 5 z m 51.095626,7.693186 c 6.206219,-6.206219 3.070519,-16.451668 -6.959351,-22.73868 -4.299814,-2.695248 -6.010656,-5.783297 -4.86218,-8.776177 0.970385,-2.528783 4.072171,-1.24652 4.427293,1.830222 0.459668,3.982513 9.183578,4.273718 9.183578,0.306549 0,-4.138752 -1.707131,-7.203373 -4.665875,-8.376124 -17.716233,-7.022148 -26.436634,11.161942 -10.539625,21.977601 6.524333,4.438884 8.889906,10.866089 4.604575,12.510525 -2.055196,0.788653 -3.364369,-1.311085 -3.383762,-5.427102 -0.015,-3.182917 -0.108198,-3.25 -4.515313,-3.25 h -4.5 l 0.01474,3.75 c 0.0418,10.632018 13.53958,15.849525 21.195918,8.193186 z"
         id="path3093" />
      <path
         style="fill:#5d7db0"
         d="M 0.17112474,40.110681 V 0.11068122 h 40.00000026 40 v 39.99999978 40 h -40 -40.00000026 z m 18.11503426,10.25 0.115035,-10.75 1.647128,10.5 1.647128,10.5 3.593987,0.301789 3.593986,0.30179 1.517508,-10.30179 1.517507,-10.301789 0.126343,10.25 0.126344,10.25 h 5 5 V 40.066871 19.023062 l -7.25,0.293809 -7.25,0.29381 -1.02163,8 C 25.543484,36.271442 24.837536,35.632145 23.566651,24.8189 L 22.895762,19.110681 H 15.533444 8.1711247 v 21 21 h 5.0000003 5 z m 49.270324,9.62028 c 8.523743,-3.883677 5.598325,-17.938412 -5.134049,-24.665774 -4.299814,-2.695248 -6.010656,-5.783297 -4.86218,-8.776177 0.970385,-2.528783 4.072171,-1.24652 4.427293,1.830222 0.538167,4.662618 9.183578,4.157987 9.183578,-0.536045 0,-6.734121 -6.956963,-10.649373 -15.5,-8.723117 -12.012599,2.708561 -10.634619,15.142074 2.803197,25.293243 4.120113,3.112408 5.336814,9.140806 2.095878,10.38447 -2.055196,0.788653 -3.364369,-1.311085 -3.383762,-5.427102 -0.015,-3.182917 -0.108198,-3.25 -4.515313,-3.25 h -4.5 l 0.01474,3.75 c 0.03667,9.32756 9.853657,14.456497 19.370616,10.12028 z"
         id="path3091" />
      <path
         style="fill:#828282"
         d="M 0.17112474,40.110681 V 0.11068122 h 40.00000026 40 v 39.99999978 40 h -40 -40.00000026 z m 18.11503426,10.25 0.115035,-10.75 1.647128,10.5 1.647128,10.5 3.593987,0.301789 3.593986,0.30179 1.517508,-10.30179 1.517507,-10.301789 0.126343,10.25 0.126344,10.25 h 5 5 V 40.066871 19.023062 l -7.25,0.293809 -7.25,0.29381 -1.02163,8 C 25.543484,36.271442 24.837536,35.632145 23.566651,24.8189 L 22.895762,19.110681 H 15.533444 8.1711247 v 21 21 h 5.0000003 5 z m 49.270324,9.62028 c 8.523743,-3.883677 5.598325,-17.938412 -5.134049,-24.665774 -4.299814,-2.695248 -6.010656,-5.783297 -4.86218,-8.776177 0.970385,-2.528783 4.072171,-1.24652 4.427293,1.830222 0.548452,4.751729 9.183578,4.142647 9.183578,-0.647767 0,-6.687401 -6.925768,-10.536195 -15.495098,-8.610951 -12.017913,2.700027 -10.641597,15.140062 2.798295,25.292799 4.120113,3.112408 5.336814,9.140806 2.095878,10.38447 -2.055196,0.788653 -3.364369,-1.311085 -3.383762,-5.427102 -0.015,-3.182917 -0.108198,-3.25 -4.515313,-3.25 h -4.5 l 0.01474,3.75 c 0.03667,9.32756 9.853657,14.456497 19.370616,10.12028 z"
         id="path3089" />
      <path
         style="fill:#5c7cad"
         d="M 0.17112474,40.110681 V 0.11068122 h 40.00000026 40 v 39.99999978 40 h -40 -40.00000026 z m 18.11422826,10.25 0.114227,-10.75 1.635773,10.5 1.635772,10.5 3.671089,0.305661 3.67109,0.305661 0.711502,-5.805661 c 1.754218,-14.313925 2.206569,-15.198864 2.3287,-4.555661 l 0.117619,10.25 h 5 5 V 40.066871 19.023062 l -7.25,0.293809 -7.25,0.29381 -1.036716,8 C 25.514875,36.249757 24.837695,35.633497 23.566651,24.8189 L 22.895762,19.110681 H 15.533444 8.1711247 v 21 21 h 5.0000003 5 z m 49.27113,9.62028 c 8.523743,-3.883677 5.598325,-17.938412 -5.134049,-24.665774 -4.299814,-2.695248 -6.010656,-5.783297 -4.86218,-8.776177 0.970385,-2.528783 4.072171,-1.24652 4.427293,1.830222 0.548452,4.751729 9.183578,4.142647 9.183578,-0.647767 0,-6.687401 -6.925768,-10.536195 -15.495098,-8.610951 -12.017913,2.700027 -10.641597,15.140062 2.798295,25.292799 4.120113,3.112408 5.336814,9.140806 2.095878,10.38447 -2.055196,0.788653 -3.364369,-1.311085 -3.383762,-5.427102 -0.015,-3.182917 -0.108198,-3.25 -4.515313,-3.25 h -4.5 l 0.01474,3.75 c 0.03667,9.32756 9.853657,14.456497 19.370616,10.12028 z"
         id="path3087" />
      <path
         style="fill:#5b7cab"
         d="M 0.17112474,40.110681 V 0.11068122 h 40.00000026 40 v 39.99999978 40 h -40 -40.00000026 z m 18.11422826,10.25 0.114227,-10.75 1.635773,10.5 1.635772,10.5 3.671089,0.305661 3.67109,0.305661 0.711502,-5.805661 c 1.754218,-14.313925 2.206569,-15.198864 2.3287,-4.555661 l 0.117619,10.25 h 5 5 V 40.066871 19.023062 l -7.25,0.293809 -7.25,0.29381 -1.036716,8 C 25.514875,36.249757 24.837695,35.633497 23.566651,24.8189 L 22.895762,19.110681 H 15.533444 8.1711247 v 21 21 h 5.0000003 5 z m 49.27113,9.62028 c 8.592394,-3.914956 5.684764,-17.884229 -5.134049,-24.665774 -4.263574,-2.672532 -6.01111,-5.782113 -4.890541,-8.70227 1.004429,-2.617498 3.651013,-1.693333 4.289232,1.497764 0.988104,4.940518 9.35,4.592434 9.35,-0.389216 0,-6.687401 -6.925768,-10.536195 -15.495098,-8.610951 -12.017913,2.700027 -10.641597,15.140062 2.798295,25.292799 4.077431,3.080165 5.337043,9.140719 2.153675,10.362291 -2.098568,0.805297 -2.535858,0.175081 -3.17262,-4.572336 -0.545923,-4.070155 -0.560893,-4.082587 -4.915921,-4.082587 h -4.368331 l 0.01474,3.75 c 0.03667,9.32756 9.853657,14.456497 19.370616,10.12028 z"
         id="path3085" />
      <path
         style="fill:#5c7aaa"
         d="M 0.17112474,40.110681 V 0.11068122 h 40.00000026 40 v 39.99999978 40 h -40 -40.00000026 z m 18.11422826,10.25 0.114227,-10.75 1.635773,10.5 1.635772,10.5 3.671089,0.305661 3.67109,0.305661 0.711502,-5.805661 c 1.754218,-14.313925 2.206569,-15.198864 2.3287,-4.555661 l 0.117619,10.25 h 5 5 V 40.066871 19.023062 l -7.25,0.293809 -7.25,0.29381 -1.036716,8 C 25.514875,36.249757 24.837695,35.633497 23.566651,24.8189 L 22.895762,19.110681 H 15.533444 8.1711247 v 21 21 h 5.0000003 5 z m 49.27113,9.62028 c 8.592394,-3.914956 5.684764,-17.884229 -5.134049,-24.665774 -4.263574,-2.672532 -6.01111,-5.782113 -4.890541,-8.70227 1.004429,-2.617498 3.651013,-1.693333 4.289232,1.497764 0.988104,4.940518 9.35,4.592434 9.35,-0.389216 0,-8.943724 -16.131519,-12.971902 -21.463388,-5.359592 -4.66369,6.658349 -1.685804,14.145517 8.766585,22.04144 4.077431,3.080165 5.337043,9.140719 2.153675,10.362291 -2.210327,0.848182 -2.855515,-0.191343 -2.909401,-4.687615 l -0.04747,-3.960966 -4.75,-0.0032 -4.75,-0.0032 0.01474,3.75 c 0.03667,9.32756 9.853657,14.456497 19.370616,10.12028 z"
         id="path3083" />
      <path
         style="fill:#5a78a5"
         d="M 0.17112474,40.110681 V 0.11068122 h 40.00000026 40 v 39.99999978 40 h -40 -40.00000026 z m 18.11422826,10.25 0.114227,-10.75 1.635773,10.5 1.635772,10.5 3.671089,0.305661 3.67109,0.305661 0.711502,-5.805661 c 1.754218,-14.313925 2.206569,-15.198864 2.3287,-4.555661 l 0.117619,10.25 h 5 5 V 40.066871 19.023062 l -7.25,0.293809 -7.25,0.29381 -1.036716,8 C 25.514875,36.249757 24.837695,35.633497 23.566651,24.8189 L 22.895762,19.110681 H 15.533444 8.1711247 v 21 21 h 5.0000003 5 z M 67.5138,60.000409 c 8.210461,-3.740936 6.227886,-16.069662 -3.842675,-23.895836 -4.883677,-3.79527 -6,-5.202703 -6,-7.564652 0,-4.240189 3.307114,-4.643669 4.134952,-0.504481 1.00129,5.00645 9.365048,4.726045 9.365048,-0.313975 0,-8.943724 -16.131519,-12.971902 -21.463388,-5.359592 -4.66369,6.658349 -1.685804,14.145517 8.766585,22.04144 4.077431,3.080165 5.337043,9.140719 2.153675,10.362291 -2.210327,0.848182 -2.855515,-0.191343 -2.909401,-4.687615 l -0.04747,-3.960966 -4.877229,-0.0032 -4.87723,-0.0032 0.498805,5.191158 c 0.831203,8.650494 10.019219,12.835289 19.098329,8.69857 z"
         id="path3081" />
      <path
         style="fill:#7d7d7d"
         d="M 0.17112474,40.110681 V 0.11068122 h 40.00000026 40 v 39.99999978 40 h -40 -40.00000026 z m 18.11422826,10.25 0.114227,-10.75 1.635773,10.5 1.635772,10.5 3.671089,0.305661 3.67109,0.305661 0.711502,-5.805661 c 1.754218,-14.313925 2.206569,-15.198864 2.3287,-4.555661 l 0.117619,10.25 h 5 5 V 40.066871 19.023062 l -7.25,0.293809 -7.25,0.29381 -1.036716,8 C 25.514875,36.249757 24.837695,35.633497 23.566651,24.8189 L 22.895762,19.110681 H 15.533444 8.1711247 v 21 21 h 5.0000003 5 z m 49.27113,9.62028 C 70.959546,58.430422 72.522027,54.114384 71.925972,47.911127 71.401969,42.45772 70.295295,41.052595 60.826289,33.818049 56.89195,30.812121 55.848997,26.55526 58.77205,25.433579 c 1.90741,-0.731942 3.594104,1.471812 3.005698,3.927102 -0.356085,1.485866 0.321155,1.75 4.486997,1.75 h 4.90638 v -3.389216 c 0,-8.943724 -16.131519,-12.971902 -21.463388,-5.359592 -4.66369,6.658349 -1.685804,14.145517 8.766585,22.04144 4.077431,3.080165 5.337043,9.140719 2.153675,10.362291 -2.22563,0.854055 -2.911417,-0.256692 -2.911417,-4.715529 v -3.939394 h -4.772728 -4.772727 v 4.576923 c 0,8.710937 10.06916,13.538101 19.385358,9.293357 z"
         id="path3079" />
      <path
         style="fill:#5976a3"
         d="M 0.17112474,40.110681 V 0.11068122 h 40.00000026 40 v 39.99999978 40 h -40 -40.00000026 z m 18.11422826,10.25 0.114227,-10.75 1.635773,10.5 1.635772,10.5 3.671089,0.305661 3.67109,0.305661 0.711502,-5.805661 c 1.754218,-14.313925 2.206569,-15.198864 2.3287,-4.555661 l 0.117619,10.25 h 5 5 v -21 -21 h -7.395919 -7.395919 l -0.734632,8.25 c -0.815065,9.15327 -1.846524,8.414191 -3.045359,-2.182114 L 22.912792,19.110681 H 15.541959 8.1711247 v 21 21 h 5.0000003 5 z m 49.27113,9.62028 C 70.959546,58.430422 72.522027,54.114384 71.925972,47.911127 71.401969,42.45772 70.295295,41.052595 60.826289,33.818049 56.89195,30.812121 55.848997,26.55526 58.77205,25.433579 c 1.90741,-0.731942 3.594104,1.471812 3.005698,3.927102 -0.356085,1.485866 0.321155,1.75 4.486997,1.75 h 4.90638 v -3.389216 c 0,-8.943724 -16.131519,-12.971902 -21.463388,-5.359592 -4.66369,6.658349 -1.685804,14.145517 8.766585,22.04144 4.077431,3.080165 5.337043,9.140719 2.153675,10.362291 -2.22563,0.854055 -2.911417,-0.256692 -2.911417,-4.715529 v -3.939394 h -4.772728 -4.772727 v 4.576923 c 0,8.710937 10.06916,13.538101 19.385358,9.293357 z"
         id="path3077" />
      <path
         style="fill:#58749f"
         d="M 0.17112474,40.110681 V 0.11068122 h 40.00000026 40 v 39.99999978 40 h -40 H 0.17112474 Z M 68.329568,59.654078 C 70.952657,58.56731 72.472923,53.603349 71.925972,47.911127 71.401969,42.45772 70.295295,41.052595 60.826289,33.818049 56.89195,30.812121 55.848997,26.55526 58.77205,25.433579 c 1.90741,-0.731942 3.594104,1.471812 3.005698,3.927102 -0.356085,1.485866 0.321155,1.75 4.486997,1.75 4.877179,0 4.90638,-0.01951 4.90638,-3.277494 0,-8.898701 -13.825473,-12.987942 -20.692941,-6.120474 -5.958298,5.958298 -2.985172,14.39512 7.996138,22.6906 4.077431,3.080165 5.337043,9.140719 2.153675,10.362291 -2.22563,0.854055 -2.911417,-0.256692 -2.911417,-4.715529 v -3.939394 h -4.772728 -4.772727 v 4.444236 c 0,9.353063 9.35428,13.575418 20.158443,9.099161 z m -50.044215,-9.293397 0.114227,-10.75 1.635773,10.5 1.635772,10.5 3.671089,0.305661 3.67109,0.305661 0.711502,-5.805661 c 1.754218,-14.313925 2.206569,-15.198864 2.3287,-4.555661 l 0.117619,10.25 h 5 5 v -21 -21 h -7.395919 -7.395919 l -0.734632,8.25 c -0.815065,9.15327 -1.846524,8.414191 -3.045359,-2.182114 L 22.912792,19.110681 H 15.541959 8.1711247 v 21 21 h 5.0000003 5 z"
         id="path3075" />
      <path
         style="fill:#56719c"
         d="M 0.17112474,40.110681 V 0.11068122 h 40.00000026 40 v 39.99999978 40 h -40 H 0.17112474 Z M 67.335339,59.943611 c 3.553622,-1.339842 5.202727,-5.662301 4.590633,-12.032484 -0.52456,-5.4592 -0.978343,-6.034982 -11.300761,-14.338943 -3.226417,-2.59552 -3.677854,-3.433803 -3.096526,-5.75 1.19477,-4.760344 4.107208,-3.242351 3.911085,2.038497 -0.03104,0.835876 1.573263,1.25 4.842466,1.25 h 4.888889 v -3.545455 c 0,-8.901263 -16.133703,-12.812545 -21.463388,-5.203353 -4.66369,6.658349 -1.685804,14.145517 8.766585,22.04144 4.077431,3.080165 5.337043,9.140719 2.153675,10.362291 -2.200495,0.84441 -2.729599,-0.05202 -2.729599,-4.62462 v -4.030303 h -4.863637 -4.863636 v 4.444236 c 0,9.278286 8.461912,13.423841 19.164214,9.388694 z m -49.049986,-9.58293 0.114227,-10.75 1.635773,10.5 1.635772,10.5 3.671089,0.305661 3.67109,0.305661 0.711502,-5.805661 c 1.754218,-14.313925 2.206569,-15.198864 2.3287,-4.555661 l 0.117619,10.25 h 5 5 v -21 -21 h -7.395919 -7.395919 l -0.734632,8.25 c -0.815065,9.15327 -1.846524,8.414191 -3.045359,-2.182114 L 22.912792,19.110681 H 15.541959 8.1711247 v 21 21 h 5.0000003 5 z"
         id="path3073" />
      <path
         style="fill:#55719a"
         d="M 0.17112474,40.110681 V 0.11068122 h 40.00000026 40 v 39.99999978 40 h -40 H 0.17112474 Z M 67.335339,59.943611 c 3.552863,-1.339555 5.202714,-5.662442 4.59096,-12.029087 -0.520444,-5.416362 -1.126694,-6.176056 -11.87572,-14.881518 -2.634406,-2.133563 -3.067213,-3.038096 -2.512061,-5.25 1.191891,-4.748872 4.362942,-2.971702 3.707253,2.077675 -0.111187,0.856236 1.426544,1.25 4.881517,1.25 5.032495,0 5.043837,-0.0074 5.043837,-3.277494 0,-6.518366 -6.55251,-10.647486 -14.523515,-9.152117 -13.254776,2.486611 -12.066072,15.454981 2.406642,26.255669 3.521764,2.628221 4.495194,8.7078 1.573745,9.828865 -2.204254,0.845852 -2.701371,-0.02224 -2.6381,-4.606804 l 0.05587,-4.048119 h -4.937321 -4.93732 v 4.444236 c 0,9.278286 8.461912,13.423841 19.164213,9.388694 z m -49.049986,-9.58293 0.114227,-10.75 1.635773,10.5 1.635772,10.5 3.671089,0.305661 3.67109,0.305661 0.711502,-5.805661 c 1.754218,-14.313925 2.206569,-15.198864 2.3287,-4.555661 l 0.117619,10.25 h 5 5 v -21 -21 h -7.395919 -7.395919 l -0.734632,8.25 c -0.815065,9.15327 -1.846524,8.414191 -3.045359,-2.182114 L 22.912792,19.110681 H 15.541959 8.1711247 v 21 21 h 5.0000003 5 z"
         id="path3071" />
      <path
         style="fill:#566f99"
         d="M 0.17112474,40.110681 V 0.11068122 h 40.00000026 40 v 39.99999978 40 h -40 H 0.17112474 Z M 67.335339,59.943611 c 3.552863,-1.339555 5.202714,-5.662442 4.59096,-12.029087 -0.520444,-5.416362 -1.126694,-6.176056 -11.87572,-14.881518 -2.634406,-2.133563 -3.067213,-3.038096 -2.512061,-5.25 0.939439,-3.743024 3.632607,-3.500089 3.632607,0.327675 0,2.933333 0.111111,3 5,3 8.370012,0 6.605968,-9.682654 -2.195839,-12.052734 -17.27755,-4.652361 -22.477303,12.843677 -7.176423,24.147099 5.104591,3.770983 5.46311,4.305496 5.17828,7.720245 -0.496022,5.946656 -3.806018,5.736816 -3.806018,-0.241286 v -4.573324 h -5 -5 v 4.444236 c 0,9.278286 8.461912,13.423841 19.164214,9.388694 z m -49.049986,-9.58293 0.114227,-10.75 1.635773,10.5 1.635772,10.5 3.671089,0.305661 3.67109,0.305661 0.711502,-5.805661 c 1.754218,-14.313925 2.206569,-15.198864 2.3287,-4.555661 l 0.117619,10.25 h 5 5 v -21 -21 h -7.395919 -7.395919 l -0.734632,8.25 c -0.815065,9.15327 -1.846524,8.414191 -3.045359,-2.182114 L 22.912792,19.110681 H 15.541959 8.1711247 v 21 21 h 5.0000003 5 z"
         id="path3069" />
      <path
         style="fill:#747474"
         d="M 0.17112474,40.110681 V 0.11068122 h 40.00000026 40 v 39.99999978 40 h -40 H 0.17112474 Z M 67.335339,59.943611 c 8.50403,-3.206321 5.620742,-19.206211 -4.404796,-24.443016 -3.649019,-1.906053 -6.091514,-5.768212 -5.274958,-8.340951 1.019517,-3.212215 3.51554,-2.536981 3.51554,0.951037 0,2.933333 0.111111,3 5,3 8.370012,0 6.605968,-9.682654 -2.195839,-12.052734 -17.27755,-4.652361 -22.477303,12.843677 -7.176423,24.147099 5.104591,3.770983 5.46311,4.305496 5.17828,7.720245 -0.496022,5.946656 -3.806018,5.736816 -3.806018,-0.241286 v -4.573324 h -5 -5 v 4.444236 c 0,9.278286 8.461912,13.423841 19.164214,9.388694 z m -49.049986,-9.58293 0.114227,-10.75 1.635773,10.5 1.635772,10.5 3.671089,0.305661 3.67109,0.305661 0.711502,-5.805661 c 1.754218,-14.313925 2.206569,-15.198864 2.3287,-4.555661 l 0.117619,10.25 h 5 5 v -21 -21 h -7.395919 -7.395919 l -0.734632,8.25 c -0.815065,9.15327 -1.846524,8.414191 -3.045359,-2.182114 L 22.912792,19.110681 H 15.541959 8.1711247 v 21 21 h 5.0000003 5 z"
         id="path3067" />
      <path
         style="fill:#546e96"
         d="M 0.17112474,40.110681 V 0.11068122 h 40.00000026 40 v 39.99999978 40 h -40 H 0.17112474 Z M 67.335339,59.943611 c 8.50403,-3.206321 5.620742,-19.206211 -4.404796,-24.443016 -3.649019,-1.906053 -6.091514,-5.768212 -5.274958,-8.340951 1.019517,-3.212215 3.51554,-2.536981 3.51554,0.951037 0,2.933333 0.111111,3 5,3 8.370012,0 6.605968,-9.682654 -2.195839,-12.052734 -17.27755,-4.652361 -22.477303,12.843677 -7.176423,24.147099 5.104591,3.770983 5.46311,4.305496 5.17828,7.720245 -0.496022,5.946656 -3.806018,5.736816 -3.806018,-0.241286 v -4.573324 h -5 -5 v 4.444236 c 0,9.278286 8.461912,13.423841 19.164214,9.388694 z m -49.049986,-9.58293 0.114227,-10.75 1.635773,10.5 1.635772,10.5 3.639082,0.303753 3.639082,0.303752 1.168391,-8.803752 c 1.693986,-12.76407 1.809526,-12.856728 1.937444,-1.553753 l 0.116001,10.25 h 5 5 v -21 -21 h -7.395919 -7.395919 l -0.755419,8.25 c -0.816787,8.920205 -1.634791,8.144832 -3.008747,-2.851945 L 22.940678,19.110681 H 15.555902 8.1711247 v 21 21 h 5.0000003 5 z"
         id="path3065" />
      <path
         style="fill:#516a91"
         d="M 0.17112474,40.110681 V 0.11068122 h 40.00000026 40 v 39.99999978 40 h -40 H 0.17112474 Z M 68.299944,59.527228 c 7.167096,-3.660342 4.892801,-17.475679 -3.779243,-22.957226 -5.475876,-3.461269 -7.75969,-6.591806 -6.865116,-9.410358 1.103143,-3.475698 3.51554,-2.479983 3.51554,1.451037 v 3.5 h 5 5 v -3.777494 c 0,-7.104931 -5.904426,-11.133031 -14.341347,-9.783913 -12.367063,1.977573 -12.384056,15.529972 -0.03092,24.655772 5.104591,3.770983 5.46311,4.305496 5.17828,7.720245 -0.496017,5.946656 -3.806013,5.736816 -3.806013,-0.241286 v -4.573324 h -5 -5 v 4.444236 c 0,9.554982 10.138868,14.074327 20.128819,8.972311 z m -50.014591,-9.166547 0.114227,-10.75 1.635773,10.5 1.635772,10.5 3.639082,0.303753 3.639082,0.303752 1.168391,-8.803752 c 1.693986,-12.76407 1.809526,-12.856728 1.937444,-1.553753 l 0.116001,10.25 h 5 5 v -21 -21 h -7.395919 -7.395919 l -0.755419,8.25 c -0.816787,8.920205 -1.634791,8.144832 -3.008747,-2.851945 L 22.940678,19.110681 H 15.555902 8.1711247 v 21 21 h 5.0000003 5 z"
         id="path3063" />
      <path
         style="fill:#51698e"
         d="M 0.17112474,40.110681 V 0.11068122 h 40.00000026 40 v 39.99999978 40 h -40 H 0.17112474 Z M 64.486058,61.040171 c 11.009004,-3.057053 11.025551,-17.190204 0.02867,-24.489516 -5.886979,-3.907554 -7.77027,-6.520311 -6.831616,-9.477747 1.080976,-3.405854 3.488011,-2.344655 3.488011,1.537773 v 3.5 h 5 5 v -3.777494 c 0,-4.835644 -2.083544,-7.764944 -6.578086,-9.248277 -17.11811,-5.649485 -23.541092,12.840017 -8.273024,23.81512 5.636849,4.05192 5.950099,4.494284 5.659129,7.991683 -0.49708,5.974807 -3.808019,5.794212 -3.808019,-0.207708 v -4.573324 h -5 -5 v 4.365141 c 0,5.273252 2.731143,9.206764 7.312913,10.532381 4.305271,1.245619 4.627325,1.246763 9.00202,0.03197 z m -46.200705,-10.67949 0.114227,-10.75 1.635773,10.5 1.635772,10.5 3.639082,0.303753 3.639082,0.303752 1.168391,-8.803752 c 1.693986,-12.76407 1.809526,-12.856728 1.937444,-1.553753 l 0.116001,10.25 h 5 5 v -21 -21 h -7.395919 -7.395919 l -0.755419,8.25 c -0.816787,8.920205 -1.634791,8.144832 -3.008747,-2.851945 L 22.940678,19.110681 H 15.555902 8.1711247 v 21 21 h 5.0000003 5 z"
         id="path3061" />
      <path
         style="fill:#6c6c6c"
         d="M 0.17112474,40.110681 V 0.11068122 h 40.00000026 40 v 39.99999978 40 h -40 H 0.17112474 Z M 64.486058,61.040171 c 11.009004,-3.057053 11.025551,-17.190204 0.02867,-24.489516 -5.886979,-3.907554 -7.77027,-6.520311 -6.831616,-9.477747 1.080976,-3.405854 3.488011,-2.344655 3.488011,1.537773 v 3.5 h 5 5 v -3.777494 c 0,-7.133512 -5.819137,-11.076553 -14.439088,-9.783911 -12.317292,1.847092 -12.550424,15.62534 -0.412022,24.350754 5.636849,4.05192 5.950099,4.494284 5.659129,7.991683 -0.49708,5.974807 -3.808019,5.794212 -3.808019,-0.207708 v -4.573324 h -5 -5 v 4.365141 c 0,5.273252 2.731143,9.206764 7.312913,10.532381 4.305271,1.245619 4.627325,1.246763 9.00202,0.03197 z m -46.200705,-10.67949 0.114227,-10.75 1.635773,10.5 1.635772,10.5 3.639082,0.303753 3.639082,0.303752 1.168391,-8.803752 c 1.693986,-12.76407 1.809526,-12.856728 1.937444,-1.553753 l 0.116001,10.25 h 5 5 v -21 -21 h -7.395919 -7.395919 l -0.755419,8.25 c -0.816787,8.920205 -1.634791,8.144832 -3.008747,-2.851945 L 22.940678,19.110681 H 15.555902 8.1711247 v 21 21 h 5.0000003 5 z"
         id="path3059" />
      <path
         style="fill:#4f688b"
         d="M 0.17112474,40.110681 V 0.11068122 h 40.00000026 40 v 39.99999978 40 h -40 H 0.17112474 Z M 64.486058,61.040171 c 11.009004,-3.057053 11.025551,-17.190204 0.02867,-24.489516 -5.886979,-3.907554 -7.77027,-6.520311 -6.831616,-9.477747 1.080976,-3.405854 3.488011,-2.344655 3.488011,1.537773 v 3.5 h 5 5 v -3.777494 c 0,-7.133512 -5.819137,-11.076553 -14.439088,-9.783911 -12.317292,1.847092 -12.550424,15.62534 -0.412022,24.350754 5.636849,4.05192 5.950099,4.494284 5.659129,7.991683 -0.49708,5.974807 -3.808019,5.794212 -3.808019,-0.207708 v -4.573324 h -5 -5 v 4.365141 c 0,5.273252 2.731143,9.206764 7.312913,10.532381 4.305271,1.245619 4.627325,1.246763 9.00202,0.03197 z m -46.181068,-10.67949 0.133865,-10.75 1.538301,10.75 1.538301,10.75 h 3.724546 3.724546 l 1.160761,-8.75 c 1.68538,-12.704652 1.801983,-12.795284 1.929814,-1.5 l 0.116001,10.25 h 5 5 v -21 -21 H 34.788613 27.4061 l -0.738787,7.75 c -0.812032,8.518341 -1.777451,7.850739 -3.019191,-2.087816 L 22.940678,19.110681 H 15.555902 8.1711247 v 21 21 h 5.0000003 5 z"
         id="path3057" />
      <path
         style="fill:#50678a"
         d="M 0.17112474,40.110681 V 0.11068122 h 40.00000026 40 v 39.99999978 40 h -40 H 0.17112474 Z M 64.486058,61.040171 c 11.009004,-3.057053 11.025551,-17.190204 0.02867,-24.489516 -5.886979,-3.907554 -7.77027,-6.520311 -6.831616,-9.477747 1.080976,-3.405854 3.488011,-2.344655 3.488011,1.537773 v 3.5 h 5 5 v -3.777494 c 0,-7.133512 -5.819137,-11.076553 -14.439088,-9.783911 -12.309909,1.845985 -12.5638,15.690671 -0.446557,24.350754 5.676273,4.05678 5.984983,4.490089 5.693664,7.991683 -0.49708,5.974807 -3.808019,5.794212 -3.808019,-0.207708 v -4.573324 h -5 -5 v 4.365141 c 0,5.273252 2.731143,9.206764 7.312913,10.532381 4.305271,1.245619 4.627325,1.246763 9.00202,0.03197 z m -46.181068,-10.67949 0.133865,-10.75 1.538301,10.75 1.538301,10.75 h 3.724546 3.724546 l 1.160761,-8.75 c 1.68538,-12.704652 1.801983,-12.795284 1.929814,-1.5 l 0.116001,10.25 h 5 5 v -21 -21 H 34.788613 27.4061 l -0.738787,7.75 c -0.812032,8.518341 -1.777451,7.850739 -3.019191,-2.087816 L 22.940678,19.110681 H 15.555902 8.1711247 v 21 21 h 5.0000003 5 z"
         id="path3055" />
      <path
         style="fill:#4f668b"
         d="M 0.17112474,40.110681 V 0.11068122 h 40.00000026 40 v 39.99999978 40 h -40 -40.00000026 z m 65.47897726,21 c 9.598308,0 8.76678,-17.987352 -1.135372,-24.560026 -5.886979,-3.907554 -7.77027,-6.520311 -6.831616,-9.477747 1.080976,-3.405854 3.488011,-2.344655 3.488011,1.537773 v 3.5 h 5.054791 5.054791 L 70.975916,27.461305 C 70.085197,13.874009 48.072953,15.298972 47.866907,28.957267 c -0.100052,6.632268 1.198207,8.782434 8.418573,13.942763 5.679783,4.059289 5.985163,4.488369 5.693664,8 -0.452888,5.455855 -3.211524,5.044332 -3.615517,-0.539349 l -0.307498,-4.25 h -4.942502 -4.942502 v 4.365141 c 0,7.360217 5.892004,12.241584 13.375,11.080827 1.58125,-0.245282 3.42804,-0.445968 4.103977,-0.445968 z m -47.345112,-10.75 0.133865,-10.75 1.538301,10.75 1.538301,10.75 h 3.724546 3.724546 l 1.160761,-8.75 c 1.68538,-12.704652 1.801983,-12.795284 1.929814,-1.5 l 0.116001,10.25 h 5 5 v -21 -21 H 34.788613 27.4061 l -0.738787,7.75 c -0.812032,8.518341 -1.777451,7.850739 -3.019191,-2.087816 L 22.940678,19.110681 H 15.555902 8.1711247 v 21 21 h 5.0000003 5 z"
         id="path3053" />
      <path
         style="fill:#4e6486"
         d="M 0.17112474,40.110681 V 0.11068122 h 40.00000026 40 v 39.99999978 40 h -40 -40.00000026 z m 65.47897726,21 c 9.647365,0 8.768978,-17.830767 -1.217202,-24.708512 -6.04283,-4.161857 -7.674206,-6.416673 -6.749786,-9.329261 1.080976,-3.405854 3.488011,-2.344655 3.488011,1.537773 v 3.5 h 5.054791 5.054791 L 70.975916,27.461305 C 70.083144,13.842691 48.073428,15.26749 47.866907,28.957267 c -0.100052,6.632268 1.198207,8.782434 8.418573,13.942763 5.679783,4.059289 5.985163,4.488369 5.693664,8 -0.452888,5.455855 -3.211524,5.044332 -3.615517,-0.539349 l -0.307498,-4.25 h -4.942502 -4.942502 v 4.365141 c 0,7.360217 5.892004,12.241584 13.375,11.080827 1.58125,-0.245282 3.42804,-0.445968 4.103977,-0.445968 z m -47.345112,-10.75 0.133865,-10.75 1.538301,10.75 1.538301,10.75 h 3.724546 3.724546 l 1.160761,-8.75 c 1.68538,-12.704652 1.801983,-12.795284 1.929814,-1.5 l 0.116001,10.25 h 5 5 v -21 -21 H 34.788613 27.4061 l -0.738787,7.75 c -0.812032,8.518341 -1.777451,7.850739 -3.019191,-2.087816 L 22.940678,19.110681 H 15.555902 8.1711247 v 21 21 h 5.0000003 5 z"
         id="path3051" />
      <path
         style="fill:#666666"
         d="M 0.17112474,40.110681 V 0.11068122 h 40.00000026 40 v 39.99999978 40 h -40 H 0.17112474 Z M 64.031912,61.488524 c 11.34557,-2.269114 11.43937,-18.126552 0.150074,-25.370874 -5.638452,-3.618184 -7.429882,-6.11139 -6.498872,-9.044742 1.080976,-3.405854 3.488011,-2.344655 3.488011,1.537773 v 3.5 h 5.054791 5.054791 L 70.975916,27.461305 C 70.088192,13.919687 47.951276,15.29547 47.745258,28.905063 c -0.09796,6.470968 1.363451,8.865794 8.540222,13.994967 5.679783,4.059289 5.985163,4.488369 5.693664,8 -0.452888,5.455855 -3.211524,5.044332 -3.615517,-0.539349 l -0.307498,-4.25 h -4.942502 -4.942502 v 4.277494 c 0,8.355497 6.575469,12.957412 15.860787,11.100349 z M 18.30499,50.360681 l 0.133865,-10.75 1.538301,10.75 1.538301,10.75 h 3.724546 3.724546 l 1.160761,-8.75 c 1.68538,-12.704652 1.801983,-12.795284 1.929814,-1.5 l 0.116001,10.25 h 5 5 v -21 -21 H 34.788613 27.4061 l -0.738787,7.75 c -0.812032,8.518341 -1.777451,7.850739 -3.019191,-2.087816 L 22.940678,19.110681 H 15.555902 8.1711247 v 21 21 h 5.0000003 5 z"
         id="path3049" />
      <path
         style="fill:#4c6181"
         d="M 0.17112474,40.110681 V 0.11068122 h 40.00000026 40 v 39.99999978 40 h -40 H 0.17112474 Z M 64.031912,61.488524 c 11.34557,-2.269114 11.43937,-18.126552 0.150074,-25.370874 -5.638452,-3.618184 -7.429882,-6.11139 -6.498872,-9.044742 1.080976,-3.405854 3.488011,-2.344655 3.488011,1.537773 v 3.5 h 5.054791 5.054791 L 70.975916,27.461305 C 70.088192,13.919687 47.951276,15.29547 47.745258,28.905063 c -0.09796,6.470968 1.363451,8.865794 8.540222,13.994967 5.679783,4.059289 5.985163,4.488369 5.693664,8 -0.452888,5.455855 -3.211524,5.044332 -3.615517,-0.539349 l -0.307498,-4.25 h -4.942502 -4.942502 v 4.277494 c 0,8.355497 6.575469,12.957412 15.860787,11.100349 z M 18.29673,50.860681 l 0.125605,-10.25 1.560693,10.25 1.560692,10.25 h 3.710415 3.710414 l 1.175637,-8.75 c 1.621985,-12.07206 1.861346,-12.194684 1.951992,-1 l 0.07895,9.75 h 5 5 v -21 -21 H 34.788613 27.4061 l -0.738787,7.75 c -0.812032,8.518341 -1.777451,7.850739 -3.019191,-2.087816 L 22.940678,19.110681 H 15.555902 8.1711247 v 21 21 h 5.0000003 5 z"
         id="path3047" />
      <path
         style="fill:#4a5e7d"
         d="M 0.17112474,40.110681 V 0.11068122 h 40.00000026 40 v 39.99999978 40 h -40 H 0.17112474 Z M 65.391642,61.066241 C 75.626378,58.223783 74.85011,42.963367 64.12055,36.078227 c -5.240958,-3.363113 -7.015731,-5.997986 -6.183551,-9.180251 0.859907,-3.288287 3.234126,-2.030966 3.234126,1.712705 v 3.5 h 5 5 v -4.325686 c 0,-12.218814 -21.174945,-13.216229 -23.44713,-1.104443 -1.240351,6.611641 0.860523,10.872582 7.719996,15.657498 5.858534,4.086699 6.227134,4.578484 6.227134,8.308226 0,5.770086 -2.887393,5.520766 -3.307498,-0.285595 l -0.307498,-4.25 h -4.942502 -4.942502 v 3.952947 c 0,9.387535 6.979397,13.846844 17.220517,11.002613 z m -47.094912,-10.20556 0.125605,-10.25 1.560693,10.25 1.560692,10.25 h 3.710415 3.710414 l 1.175637,-8.75 c 1.621985,-12.07206 1.861346,-12.194684 1.951992,-1 l 0.07895,9.75 h 5 5 v -21 -21 H 34.788613 27.4061 l -0.738787,7.75 c -0.812032,8.518341 -1.777451,7.850739 -3.019191,-2.087816 L 22.940678,19.110681 H 15.555902 8.1711247 v 21 21 h 5.0000003 5 z"
         id="path3045" />
      <path
         style="fill:#616161"
         d="M 0.17112474,40.110681 V 0.11068122 h 40.00000026 40 v 39.99999978 40 h -40 H 0.17112474 Z M 65.391642,61.066241 C 75.626378,58.223783 74.85011,42.963367 64.12055,36.078227 c -5.240958,-3.363113 -7.015731,-5.997986 -6.183551,-9.180251 0.859907,-3.288287 3.234126,-2.030966 3.234126,1.712705 v 3.5 h 5 5 v -4.325686 c 0,-12.611929 -21.393082,-13.145054 -23.51492,-0.586002 -1.093791,6.47409 0.910901,10.426984 7.587331,14.960861 5.787915,3.930498 7.517202,6.650699 6.75245,10.621732 -0.716659,3.721314 -3.313162,1.990789 -3.632359,-2.420905 l -0.307498,-4.25 h -4.942502 -4.942502 v 3.952947 c 0,9.387535 6.979397,13.846844 17.220517,11.002613 z m -47.094912,-10.20556 0.125605,-10.25 1.560693,10.25 1.560692,10.25 h 3.710415 3.710414 l 1.175637,-8.75 c 1.621985,-12.07206 1.861346,-12.194684 1.951992,-1 l 0.07895,9.75 h 5 5 v -21 -21 H 34.788613 27.4061 l -0.738787,7.75 c -0.812032,8.518341 -1.777451,7.850739 -3.019191,-2.087816 L 22.940678,19.110681 H 15.555902 8.1711247 v 21 21 h 5.0000003 5 z"
         id="path3043" />
      <path
         style="fill:#495c78"
         d="M 0.17112474,40.110681 V 0.11068122 h 40.00000026 40 v 39.99999978 40 h -40 H 0.17112474 Z M 65.391642,61.066241 C 75.626378,58.223783 74.85011,42.963367 64.12055,36.078227 c -5.240958,-3.363113 -7.015731,-5.997986 -6.183551,-9.180251 0.859907,-3.288287 3.234126,-2.030966 3.234126,1.712705 v 3.5 h 5 5 v -4.325686 c 0,-12.611929 -21.393082,-13.145054 -23.51492,-0.586002 -1.093791,6.47409 0.910901,10.426984 7.587331,14.960861 5.787915,3.930498 7.517202,6.650699 6.75245,10.621732 -0.716659,3.721314 -3.313162,1.990789 -3.632359,-2.420905 l -0.307498,-4.25 h -4.942502 -4.942502 v 3.952947 c 0,9.387535 6.979397,13.846844 17.220517,11.002613 z m -47.094173,-10.20556 0.126343,-10.25 1.510525,10.25 1.510525,10.25 h 3.801859 c 3.714284,0 3.815342,-0.0979 4.387236,-4.25 2.136403,-15.510843 2.295889,-15.873273 2.420265,-5.5 l 0.116903,9.75 h 5 5 v -21 -21 h -7.41468 -7.41468 l -0.72513,7.738206 c -0.794166,8.474936 -1.732224,7.818908 -2.968513,-2.076022 L 22.940678,19.110681 H 15.555902 8.1711247 v 21 21 h 5.0000003 5 z"
         id="path3041" />
      <path
         style="fill:#485b76"
         d="M 0.17112474,40.110681 V 0.11068122 h 40.00000026 40 v 39.99999978 40 h -40 H 0.17112474 Z M 66.622752,60.695339 c 9.084788,-3.795867 7.629243,-18.115782 -2.502202,-24.617112 -5.240958,-3.363113 -7.015731,-5.997986 -6.183551,-9.180251 0.859907,-3.288287 3.234126,-2.030966 3.234126,1.712705 v 3.5 h 5 5 v -4.325686 c 0,-12.344195 -21.315058,-13.172749 -23.614077,-0.917922 -1.181419,6.297502 1.011444,10.693147 7.661685,15.358025 5.814891,4.078914 7.514795,6.726743 6.777253,10.556488 -0.716659,3.721314 -3.313162,1.990789 -3.632359,-2.420905 l -0.307498,-4.25 h -4.942502 -4.942502 v 4.80887 c 0,9.114672 8.833271,13.794594 18.451627,9.775788 z m -48.325283,-9.834658 0.126343,-10.25 1.510525,10.25 1.510525,10.25 h 3.801859 c 3.714284,0 3.815342,-0.0979 4.387236,-4.25 2.136403,-15.510843 2.295889,-15.873273 2.420265,-5.5 l 0.116903,9.75 h 5 5 v -21 -21 h -7.41468 -7.41468 l -0.72513,7.738206 c -0.794166,8.474936 -1.732224,7.818908 -2.968513,-2.076022 L 22.940678,19.110681 H 15.555902 8.1711247 v 21 21 h 5.0000003 5 z"
         id="path3039" />
      <path
         style="fill:#475874"
         d="M 0.17112474,40.110681 V 0.11068122 h 40.00000026 40 v 39.99999978 40 h -40 H 0.17112474 Z M 66.622752,60.695339 c 9.132847,-3.815947 7.825164,-17.605822 -2.323063,-24.497352 -5.876318,-3.990531 -7.143872,-5.86511 -6.313708,-9.337306 0.784232,-3.280079 3.185144,-1.960956 3.185144,1.75 v 3.5 h 5 5 v -4.325686 c 0,-5.59561 -3.078877,-8.70345 -9.319156,-9.40682 -16.012676,-1.804861 -20.402588,14.188273 -6.559814,23.898426 5.742325,4.028011 7.439124,6.686916 6.703831,10.504985 -0.716659,3.721314 -3.313162,1.990789 -3.632359,-2.420905 l -0.307498,-4.25 h -4.942502 -4.942502 v 4.80887 c 0,9.114672 8.833271,13.794594 18.451627,9.775788 z m -48.325283,-9.834658 0.126343,-10.25 1.510525,10.25 1.510525,10.25 h 3.801859 c 3.714284,0 3.815342,-0.0979 4.387236,-4.25 2.136403,-15.510843 2.295889,-15.873273 2.420265,-5.5 l 0.116903,9.75 h 5 5 v -21 -21 h -7.41468 -7.41468 l -0.72513,7.738206 c -0.794166,8.474936 -1.732224,7.818908 -2.968513,-2.076022 L 22.940678,19.110681 H 15.555902 8.1711247 v 21 21 h 5.0000003 5 z"
         id="path3037" />
      <path
         style="fill:#5a5a5a"
         d="M 0.17112474,40.110681 V 0.11068122 h 40.00000026 40 v 39.99999978 40 h -40 H 0.17112474 Z M 66.622752,60.695339 c 4.283991,-1.789966 5.548373,-4.172216 5.548373,-10.453817 0,-7.34488 -1.236484,-9.537825 -7.947537,-14.095214 -6.196916,-4.208246 -9.013376,-11.035627 -4.552463,-11.035627 1.051822,0 1.5,1.061362 1.5,3.55226 V 32.2152 l 5.25,-0.302259 5.25,-0.30226 -0.322889,-4 C 70.910235,22.184658 67.688372,19.036022 61.907407,18.384424 45.76269,16.56468 41.351199,32.497577 55.292155,42.276601 c 5.742325,4.028011 7.439124,6.686916 6.703831,10.504985 -0.716659,3.721314 -3.313162,1.990789 -3.632359,-2.420905 l -0.307498,-4.25 h -4.942502 -4.942502 v 4.80887 c 0,9.230288 8.711266,13.845571 18.451627,9.775788 z m -48.325283,-9.834658 0.126343,-10.25 1.510525,10.25 1.510525,10.25 h 3.801859 c 3.714284,0 3.815342,-0.0979 4.387236,-4.25 2.136403,-15.510843 2.295889,-15.873273 2.420265,-5.5 l 0.116903,9.75 h 5 5 v -21 -21 h -7.41468 -7.41468 l -0.72513,7.738206 c -0.794166,8.474936 -1.732224,7.818908 -2.968513,-2.076022 L 22.940678,19.110681 H 15.555902 8.1711247 v 21 21 h 5.0000003 5 z"
         id="path3035" />
      <path
         style="fill:#455671"
         d="M 0.17112474,40.110681 V 0.11068122 h 40.00000026 40 v 39.99999978 40 h -40 H 0.17112474 Z M 66.622752,60.695339 c 4.283991,-1.789966 5.548373,-4.172216 5.548373,-10.453817 0,-7.34488 -1.236484,-9.537825 -7.947537,-14.095214 -6.196916,-4.208246 -9.013376,-11.035627 -4.552463,-11.035627 1.051822,0 1.5,1.061362 1.5,3.55226 V 32.2152 l 5.25,-0.302259 5.25,-0.30226 -0.322889,-4 C 70.910235,22.184658 67.688372,19.036022 61.907407,18.384424 45.76269,16.56468 41.351199,32.497577 55.292155,42.276601 c 5.742325,4.028011 7.439124,6.686916 6.703831,10.504985 -0.716659,3.721314 -3.313162,1.990789 -3.632359,-2.420905 l -0.307498,-4.25 h -4.942502 -4.942502 v 4.80887 c 0,9.230288 8.711266,13.845571 18.451627,9.775788 z m -48.325283,-9.834658 0.126343,-10.25 1.510525,10.25 1.510525,10.25 h 3.801859 c 3.714284,0 3.815342,-0.0979 4.387236,-4.25 2.136403,-15.510843 2.295889,-15.873273 2.420265,-5.5 l 0.116903,9.75 h 5 5 v -21 -21 h -7.41468 -7.41468 l -0.72513,7.738206 c -0.789085,8.420712 -1.674598,7.809669 -2.881272,-1.988206 l -0.708151,-5.75 H 15.599169 8.1711247 v 21 21 h 5.0000003 5 z"
         id="path3033" />
      <path
         style="fill:#44546d"
         d="M 0.17112474,40.110681 V 0.11068122 h 40.00000026 40 v 39.99999978 40 h -40 H 0.17112474 Z M 66.622752,60.695339 c 4.283991,-1.789966 5.548373,-4.172216 5.548373,-10.453817 0,-7.354739 -1.236381,-9.537755 -8.005196,-14.13437 -5.515187,-3.745291 -6.080166,-4.450814 -5.802463,-7.245876 0.449945,-4.528675 2.807659,-4.809089 2.807659,-0.333928 v 3.583333 h 5.404843 5.404844 l -0.521987,-4.25 C 70.75476,22.128209 67.631597,19.029623 61.907407,18.384424 45.655683,16.552619 41.385298,32.816095 55.555444,42.575449 c 5.755912,3.964248 7.338256,6.683239 6.121116,10.518107 -1.070312,3.372255 -2.976436,1.755155 -3.312933,-2.810596 l -0.307498,-4.172279 h -4.942502 -4.942502 v 4.80887 c 0,9.230288 8.711266,13.845571 18.451627,9.775788 z m -48.325283,-9.834658 0.126343,-10.25 1.510525,10.25 1.510525,10.25 h 3.801859 c 3.714284,0 3.815342,-0.0979 4.387236,-4.25 2.136403,-15.510843 2.295889,-15.873273 2.420265,-5.5 l 0.116903,9.75 h 5 5 v -21 -21 h -7.41468 -7.41468 l -0.72513,7.738206 c -0.789085,8.420712 -1.674598,7.809669 -2.881272,-1.988206 l -0.708151,-5.75 H 15.599169 8.1711247 v 21 21 h 5.0000003 5 z"
         id="path3031" />
      <path
         style="fill:#435269"
         d="M 0.17112474,40.110681 V 0.11068122 h 40.00000026 40 v 39.99999978 40 h -40 H 0.17112474 Z M 66.622752,60.695339 c 9.528993,-3.981467 7.875813,-17.85403 -2.986886,-25.064278 -4.990918,-3.312783 -5.545623,-4.026708 -5.271312,-6.784372 0.449419,-4.518046 2.806571,-4.786251 2.806571,-0.319341 v 3.583333 h 5.475 5.475 l -0.540875,-3.25 c -0.297482,-1.7875 -0.731355,-4.208912 -0.964164,-5.380917 -0.52715,-2.653772 -6.028595,-5.369083 -10.878209,-5.369083 -14.753782,0 -17.382054,15.373841 -4.182433,24.464768 5.755912,3.964248 7.338256,6.683239 6.121116,10.518107 -1.070312,3.372255 -2.976436,1.755155 -3.312933,-2.810596 l -0.307498,-4.172279 h -4.942502 -4.942502 v 4.80887 c 0,9.230288 8.711266,13.845571 18.451627,9.775788 z m -48.325283,-9.834658 0.126343,-10.25 1.510525,10.25 1.510525,10.25 h 3.801859 c 3.714284,0 3.815342,-0.0979 4.387236,-4.25 2.136403,-15.510843 2.295889,-15.873273 2.420265,-5.5 l 0.116903,9.75 h 5 5 v -21 -21 h -7.41468 -7.41468 l -0.72513,7.738206 c -0.789085,8.420712 -1.674598,7.809669 -2.881272,-1.988206 l -0.708151,-5.75 H 15.599169 8.1711247 v 21 21 h 5.0000003 5 z"
         id="path3029" />
      <path
         style="fill:#415066"
         d="M 0.17112474,40.110681 V 0.11068122 h 40.00000026 40 v 39.99999978 40 h -40 H 0.17112474 Z M 66.622752,60.695339 c 9.569962,-3.998585 7.803911,-18.247573 -3.128411,-25.240895 -4.887692,-3.126619 -5.408499,-3.794921 -5.131502,-6.584765 0.45025,-4.534797 2.808286,-4.822243 2.808286,-0.342331 v 3.583333 h 5.545313 5.545313 l -0.632632,-3.75 c -1.076687,-6.382191 -1.43167,-7.009626 -4.895884,-8.653503 -17.56413,-8.334725 -27.366157,11.718916 -11.177791,22.868271 5.755912,3.964248 7.338256,6.683239 6.121116,10.518107 -1.070312,3.372255 -2.976436,1.755155 -3.312933,-2.810596 l -0.307498,-4.172279 h -5.319665 -5.319665 l 0.509134,4.75 c 1.060943,9.898157 8.800909,13.969433 18.696819,9.834658 z m -48.325283,-9.834658 0.126343,-10.25 1.510525,10.25 1.510525,10.25 h 3.801859 c 3.714284,0 3.815342,-0.0979 4.387236,-4.25 2.136403,-15.510843 2.295889,-15.873273 2.420265,-5.5 l 0.116903,9.75 h 5 5 v -21 -21 h -7.41468 -7.41468 l -0.72513,7.738206 c -0.789085,8.420712 -1.674598,7.809669 -2.881272,-1.988206 l -0.708151,-5.75 H 15.599169 8.1711247 v 21 21 h 5.0000003 5 z"
         id="path3027" />
      <path
         style="fill:#414e65"
         d="M 0.17112474,40.110681 V 0.11068122 h 40.00000026 40 v 39.99999978 40 h -40 H 0.17112474 Z M 68.995617,59.397511 c 6.858359,-5.107392 3.949178,-17.897685 -5.436477,-23.901616 -4.991842,-3.193243 -5.47587,-3.817639 -5.196301,-6.703228 0.402347,-4.152842 2.219223,-4.105707 2.621644,0.06801 0.311751,3.233323 0.34149,3.25 5.795314,3.25 h 5.481954 l -0.632632,-3.75 C 70.520547,21.78949 70.047686,20.957052 66.606882,19.519392 48.700608,12.037673 39.397223,31.446856 55.555444,42.575449 c 5.755912,3.964248 7.338256,6.683239 6.121116,10.518107 -1.070312,3.372255 -2.976436,1.755155 -3.312933,-2.810596 l -0.307498,-4.172279 h -5.319665 -5.319665 l 0.509134,4.75 c 1.121909,10.466946 12.362259,15.021213 21.069684,8.53683 z m -50.698148,-8.53683 0.126343,-10.25 1.510525,10.25 1.510525,10.25 h 3.801859 c 3.714284,0 3.815342,-0.0979 4.387236,-4.25 2.136403,-15.510843 2.295889,-15.873273 2.420265,-5.5 l 0.116903,9.75 h 5 5 v -21 -21 h -7.41468 -7.41468 l -0.72513,7.738206 c -0.789085,8.420712 -1.674598,7.809669 -2.881272,-1.988206 l -0.708151,-5.75 H 15.599169 8.1711247 v 21 21 h 5.0000003 5 z"
         id="path3025" />
      <path
         style="fill:#404e63"
         d="M 0.17112474,40.110681 V 0.11068122 h 40.00000026 40 v 39.99999978 40 h -40 H 0.17112474 Z M 68.995617,59.397511 c 6.83627,-5.090942 3.985532,-17.736688 -5.403758,-23.970825 -4.926343,-3.270908 -5.488987,-3.997349 -5.221042,-6.740988 0.397245,-4.067605 2.216347,-3.945817 2.613666,0.174983 0.311751,3.233323 0.34149,3.25 5.795314,3.25 h 5.481954 l -0.632632,-3.75 C 70.520547,21.78949 70.047686,20.957052 66.606882,19.519392 48.685527,12.031371 39.28368,31.861395 55.614379,42.704369 c 5.705967,3.788549 7.293588,6.509368 6.062181,10.389187 -1.070312,3.372255 -2.976436,1.755155 -3.312933,-2.810596 l -0.307498,-4.172279 h -5.319665 -5.319665 l 0.509134,4.75 c 1.121909,10.466946 12.362259,15.021213 21.069684,8.53683 z m -50.698148,-8.53683 0.126343,-10.25 1.510525,10.25 1.510525,10.25 h 3.801859 c 3.714284,0 3.815342,-0.0979 4.387236,-4.25 2.136403,-15.510843 2.295889,-15.873273 2.420265,-5.5 l 0.116903,9.75 h 5 5 v -21 -21 h -7.41468 -7.41468 l -0.72513,7.738206 c -0.789085,8.420712 -1.674598,7.809669 -2.881272,-1.988206 l -0.708151,-5.75 H 15.599169 8.1711247 v 21 21 h 5.0000003 5 z"
         id="path3023" />
      <path
         style="fill:#505050"
         d="M 0.17112474,40.110681 V 0.11068122 h 40.00000026 40 v 39.99999978 40 h -40 H 0.17112474 Z M 68.995617,59.397511 c 6.83627,-5.090942 3.985532,-17.736688 -5.403758,-23.970825 -4.926343,-3.270908 -5.488987,-3.997349 -5.221042,-6.740988 0.397245,-4.067605 2.216347,-3.945817 2.613666,0.174983 0.312073,3.236663 0.33603,3.25 5.837898,3.25 h 5.52454 l -0.704028,-4.25 C 70.668995,21.981552 69.70421,20.492166 66.043011,19.215865 47.932129,12.902378 39.461978,31.979779 55.614379,42.704369 c 5.779791,3.837565 7.743396,7.301528 5.845014,10.311089 -1.600758,2.537728 -2.763564,1.453289 -3.095766,-2.887129 l -0.307498,-4.017648 h -5.319665 -5.319665 l 0.509134,4.75 c 1.121909,10.466946 12.362259,15.021213 21.069684,8.53683 z m -50.698148,-8.53683 0.126343,-10.25 1.510525,10.25 1.510525,10.25 h 3.801859 c 3.714284,0 3.815342,-0.0979 4.387236,-4.25 2.136403,-15.510843 2.295889,-15.873273 2.420265,-5.5 l 0.116903,9.75 h 5 5 v -21 -21 h -7.41468 -7.41468 l -0.72513,7.738206 c -0.789085,8.420712 -1.674598,7.809669 -2.881272,-1.988206 l -0.708151,-5.75 H 15.599169 8.1711247 v 21 21 h 5.0000003 5 z"
         id="path3021" />
      <path
         style="fill:#3f4c60"
         d="M 0.17112474,40.110681 V 0.11068122 h 40.00000026 40 v 39.99999978 40 h -40 H 0.17112474 Z M 68.995617,59.397511 c 6.83627,-5.090942 3.985532,-17.736688 -5.403758,-23.970825 -4.926343,-3.270908 -5.488987,-3.997349 -5.221042,-6.740988 0.397245,-4.067605 2.216347,-3.945817 2.613666,0.174983 0.312073,3.236663 0.33603,3.25 5.837898,3.25 h 5.52454 l -0.704028,-4.25 C 70.668995,21.981552 69.70421,20.492166 66.043011,19.215865 47.852652,12.874671 39.391095,31.932715 55.614379,42.704369 c 5.779791,3.837565 7.743396,7.301528 5.845014,10.311089 -1.600758,2.537728 -2.763564,1.453289 -3.095766,-2.887129 l -0.307498,-4.017648 h -5.319665 -5.319665 l 0.509134,4.75 c 1.121909,10.466946 12.362259,15.021213 21.069684,8.53683 z m -50.698148,-8.53683 0.126343,-10.25 1.510525,10.25 1.510525,10.25 h 3.863132 c 2.377197,0 3.896769,-0.480806 3.950582,-1.25 0.0481,-0.6875 0.671155,-5.075 1.384571,-9.75 l 1.297119,-8.5 0.11543,9.75 0.115429,9.75 h 5 5 V 39.566871 18.023062 l -7.25,0.293809 -7.25,0.29381 -1.076334,8 c -1.177863,8.754634 -0.992094,8.981408 -3.276739,-4 l -0.703974,-4 -7.221477,-0.29381 -7.2214763,-0.293809 v 21.543809 21.54381 h 5.0000003 5 z"
         id="path3019" />
      <path
         style="fill:#3e4a5e"
         d="M 0.17112474,40.110681 V 0.11068122 h 40.00000026 40 v 39.99999978 40 h -40 H 0.17112474 Z M 68.995617,59.397511 c 6.83627,-5.090942 3.985532,-17.736688 -5.403758,-23.970825 -4.926343,-3.270908 -5.488987,-3.997349 -5.221042,-6.740988 0.397245,-4.067605 2.216347,-3.945817 2.613666,0.174983 0.312073,3.236663 0.33603,3.25 5.837898,3.25 h 5.52454 l -0.704028,-4.25 C 70.668995,21.981552 69.70421,20.492166 66.043011,19.215865 47.718398,12.82787 39.358504,31.911075 55.721967,42.775804 c 5.673015,3.76667 7.624058,7.24872 5.737426,10.239654 -1.600758,2.537728 -2.763564,1.453289 -3.095766,-2.887129 l -0.307498,-4.017648 h -5.556046 -5.556046 l 0.71224,4.75 c 1.580335,10.539413 12.684853,14.98179 21.33934,8.53683 z m -50.698148,-8.53683 0.126343,-10.25 1.510525,10.25 1.510525,10.25 h 3.863132 c 2.377197,0 3.896769,-0.480806 3.950582,-1.25 0.0481,-0.6875 0.671155,-5.075 1.384571,-9.75 l 1.297119,-8.5 0.11543,9.75 0.115429,9.75 h 5 5 V 39.566871 18.023062 l -7.25,0.293809 -7.25,0.29381 -1.076334,8 c -1.177863,8.754634 -0.992094,8.981408 -3.276739,-4 l -0.703974,-4 -7.221477,-0.29381 -7.2214763,-0.293809 v 21.543809 21.54381 h 5.0000003 5 z"
         id="path3017" />
      <path
         style="fill:#4a4a4a"
         d="M 0.17112474,40.110681 V 0.11068122 h 40.00000026 40 v 39.99999978 40 h -40 H 0.17112474 Z M 68.995617,59.397511 c 6.83627,-5.090942 3.985532,-17.736688 -5.403758,-23.970825 -4.926343,-3.270908 -5.488987,-3.997349 -5.221042,-6.740988 0.397245,-4.067605 2.216347,-3.945817 2.613666,0.174983 0.374769,3.886919 11.193297,5.338283 11.181065,1.5 -0.02585,-8.112583 -4.420622,-12.25 -13.011964,-12.25 -14.578084,0 -16.776915,15.804343 -3.431617,24.665123 5.673015,3.76667 7.624058,7.24872 5.737426,10.239654 -1.600758,2.537728 -2.763564,1.453289 -3.095766,-2.887129 l -0.307498,-4.017648 h -5.556046 -5.556046 l 0.71224,4.75 c 1.580335,10.539413 12.684853,14.98179 21.33934,8.53683 z m -50.698148,-8.53683 0.126343,-10.25 1.510525,10.25 1.510525,10.25 h 3.863132 c 2.377197,0 3.896769,-0.480806 3.950582,-1.25 0.0481,-0.6875 0.671155,-5.075 1.384571,-9.75 l 1.297119,-8.5 0.11543,9.75 0.115429,9.75 h 5 5 V 39.566871 18.023062 l -7.25,0.293809 -7.25,0.29381 -1.076334,8 c -1.177863,8.754634 -0.992094,8.981408 -3.276739,-4 l -0.703974,-4 -7.221477,-0.29381 -7.2214763,-0.293809 v 21.543809 21.54381 h 5.0000003 5 z"
         id="path3015" />
      <path
         style="fill:#3c485a"
         d="M 0.17112474,40.110681 V 0.11068122 h 40.00000026 40 v 39.99999978 40 h -40 H 0.17112474 Z M 68.995617,59.397511 c 6.83627,-5.090942 3.985532,-17.736688 -5.403758,-23.970825 -4.926343,-3.270908 -5.488987,-3.997349 -5.221042,-6.740988 0.397245,-4.067605 2.216347,-3.945817 2.613666,0.174983 0.374769,3.886919 11.193297,5.338283 11.181065,1.5 -0.02585,-8.112583 -4.420622,-12.25 -13.011964,-12.25 -14.660578,0 -16.927212,15.704552 -3.548691,24.58739 5.789209,3.843819 7.753906,7.306203 5.8545,10.317387 -1.600758,2.537728 -2.763564,1.453289 -3.095766,-2.887129 l -0.307498,-4.017648 h -5.556046 -5.556046 l 0.71224,4.75 c 1.580335,10.539413 12.684853,14.98179 21.33934,8.53683 z m -50.698148,-8.53683 0.126343,-10.25 1.510525,10.25 1.510525,10.25 h 3.863132 c 2.377197,0 3.896769,-0.480806 3.950582,-1.25 0.0481,-0.6875 0.671155,-5.075 1.384571,-9.75 l 1.297119,-8.5 0.11543,9.75 0.115429,9.75 h 5 5 V 39.566871 18.023062 l -7.25,0.293809 -7.25,0.29381 -1.076334,8 c -1.177863,8.754634 -0.992094,8.981408 -3.276739,-4 l -0.703974,-4 -7.221477,-0.29381 -7.2214763,-0.293809 v 21.543809 21.54381 h 5.0000003 5 z"
         id="path3013" />
      <path
         style="fill:#3c4758"
         d="M 0.17112474,40.110681 V 0.11068122 h 40.00000026 40 v 39.99999978 40 h -40 H 0.17112474 Z M 66.453244,60.765585 c 9.877879,-4.12902 8.321208,-17.914075 -2.861385,-25.338899 -4.926343,-3.270908 -5.488987,-3.997349 -5.221042,-6.740988 0.397245,-4.067605 2.216347,-3.945817 2.613666,0.174983 0.374769,3.886919 11.193297,5.338283 11.181065,1.5 -0.02607,-8.180661 -4.420665,-12.253937 -13.212304,-12.246262 -14.522623,0.01268 -16.66498,15.741908 -3.348351,24.583652 5.789209,3.843819 7.753906,7.306203 5.8545,10.317387 -1.600758,2.537728 -2.763564,1.453289 -3.095766,-2.887129 l -0.307498,-4.017648 h -5.556046 -5.556046 l 0.71224,4.75 c 1.484929,9.90314 9.144937,13.939517 18.796967,9.904904 z m -48.155775,-9.904904 0.126343,-10.25 1.510525,10.25 1.510525,10.25 h 3.863132 c 2.377197,0 3.896769,-0.480806 3.950582,-1.25 0.0481,-0.6875 0.671155,-5.075 1.384571,-9.75 l 1.297119,-8.5 0.11543,9.75 0.115429,9.75 h 5 5 V 39.566871 18.023062 l -7.25,0.293809 -7.25,0.29381 -1.076334,8 c -1.177863,8.754634 -0.992094,8.981408 -3.276739,-4 l -0.703974,-4 -7.221477,-0.29381 -7.2214763,-0.293809 v 21.543809 21.54381 h 5.0000003 5 z"
         id="path3011" />
      <path
         style="fill:#3a4455"
         d="M 0.17112474,40.110681 V 0.11068122 h 40.00000026 40 v 39.99999978 40 h -40 H 0.17112474 Z M 67.043618,60.676618 c 9.237818,-4.777062 7.426477,-18.02719 -3.451759,-25.249932 -4.926343,-3.270908 -5.488987,-3.997349 -5.221042,-6.740988 0.397245,-4.067605 2.216347,-3.945817 2.613666,0.174983 0.374769,3.886919 11.193297,5.338283 11.181065,1.5 C 72.139478,22.18002 67.744883,18.106744 58.953244,18.114419 44.439118,18.127089 42.316839,33.566134 55.57133,42.71699 c 5.785356,3.994191 7.724883,7.386504 5.888063,10.298468 -1.600758,2.537728 -2.763564,1.453289 -3.095766,-2.887129 l -0.307498,-4.017648 h -5.556046 -5.556046 l 0.71224,4.75 c 1.481723,9.881757 10.464814,14.429955 19.387341,9.815937 z m -48.746149,-9.815937 0.126343,-10.25 1.510525,10.25 1.510525,10.25 h 3.863132 c 2.377197,0 3.896769,-0.480806 3.950582,-1.25 0.0481,-0.6875 0.671155,-5.075 1.384571,-9.75 l 1.297119,-8.5 0.11543,9.75 0.115429,9.75 h 5 5 V 39.566871 18.023062 l -7.25,0.293809 -7.25,0.29381 -1.076334,8 c -1.177863,8.754634 -0.992094,8.981408 -3.276739,-4 l -0.703974,-4 -7.221477,-0.29381 -7.2214763,-0.293809 v 21.543809 21.54381 h 5.0000003 5 z"
         id="path3009" />
      <path
         style="fill:#464646"
         d="M 0.17112474,40.110681 V 0.11068122 h 40.00000026 40 v 39.99999978 40 h -40 H 0.17112474 Z M 69.877305,58.859047 c 6.119699,-6.119699 3.157592,-17.162536 -6.285446,-23.432361 -4.926343,-3.270908 -5.488987,-3.997349 -5.221042,-6.740988 0.397245,-4.067605 2.216347,-3.945817 2.613666,0.174983 0.374769,3.886919 11.193297,5.338283 11.181065,1.5 C 72.139478,22.18002 67.744883,18.106744 58.953244,18.114419 44.47178,18.127059 42.323747,33.523417 55.520798,42.71699 c 5.411291,3.769713 7.780999,7.755208 6.165406,10.369292 -1.58568,2.565684 -3.515079,0.9324 -3.515079,-2.975601 v -4 h -5.5 c -6.183297,0 -6.548524,0.68398 -4.433056,8.302018 2.190532,7.888354 15.468851,10.616732 21.639236,4.446348 z m -51.579836,-7.998366 0.126343,-10.25 1.510525,10.25 1.510525,10.25 h 3.863132 c 2.377197,0 3.896769,-0.480806 3.950582,-1.25 0.0481,-0.6875 0.671155,-5.075 1.384571,-9.75 l 1.297119,-8.5 0.11543,9.75 0.115429,9.75 h 5 5 V 39.566871 18.023062 l -7.25,0.293809 -7.25,0.29381 -1.076334,8 c -1.177863,8.754634 -0.992094,8.981408 -3.276739,-4 l -0.703974,-4 -7.221477,-0.29381 -7.2214763,-0.293809 v 21.543809 21.54381 h 5.0000003 5 z"
         id="path3007" />
      <path
         style="fill:#394151"
         d="M 0.17112474,40.110681 V 0.11068122 h 40.00000026 40 v 39.99999978 40 h -40 H 0.17112474 Z M 69.877305,58.859047 c 6.119699,-6.119699 3.157592,-17.162536 -6.285446,-23.432361 -4.926343,-3.270908 -5.488987,-3.997349 -5.221042,-6.740988 0.397245,-4.067605 2.216347,-3.945817 2.613666,0.174983 0.374769,3.886919 11.193297,5.338283 11.181065,1.5 C 72.139478,22.18002 67.744883,18.106744 58.953244,18.114419 44.47178,18.127059 42.323747,33.523417 55.520798,42.71699 c 5.411291,3.769713 7.780999,7.755208 6.165406,10.369292 -1.58568,2.565684 -3.515079,0.9324 -3.515079,-2.975601 v -4 h -5.5 c -6.183297,0 -6.548524,0.68398 -4.433056,8.302018 2.190532,7.888354 15.468851,10.616732 21.639236,4.446348 z m -51.579836,-7.998366 0.126343,-10.25 1.510525,10.25 1.510525,10.25 h 3.863132 c 2.383775,0 3.891897,-0.478678 3.938249,-1.25 0.04131,-0.6875 0.662482,-4.85 1.380373,-9.25 l 1.305256,-8 0.119627,9.25 0.119626,9.25 h 5 5 V 39.566871 18.023062 l -7.25,0.293809 -7.25,0.29381 -1.120522,7.5 c -0.616287,4.125 -1.227358,7.05 -1.357936,6.5 -0.130578,-0.55 -0.751343,-3.925 -1.379478,-7.5 l -1.142064,-6.5 -7.25,-0.29381 -7.2500003,-0.293809 v 21.543809 21.54381 h 5.0000003 5 z"
         id="path3005" />
      <path
         style="fill:#38414f"
         d="M 0.17112474,40.110681 V 0.11068122 h 40.00000026 40 v 39.99999978 40 h -40 H 0.17112474 Z M 69.877305,58.859047 c 6.119699,-6.119699 3.157592,-17.162536 -6.285446,-23.432361 -4.926343,-3.270908 -5.488987,-3.997349 -5.221042,-6.740988 0.397245,-4.067605 2.216347,-3.945817 2.613666,0.174983 0.31243,3.240369 0.329873,3.25 5.885924,3.25 h 5.572566 l -0.62816,-4.58293 C 71.024099,21.758869 70.670682,21.217356 66.581166,19.508647 48.364729,11.897334 39.121537,31.292635 55.520798,42.71699 c 5.411291,3.769713 7.780999,7.755208 6.165406,10.369292 -1.58568,2.565684 -3.515079,0.9324 -3.515079,-2.975601 v -4 h -5.5 c -6.183297,0 -6.548524,0.68398 -4.433056,8.302018 2.190532,7.888354 15.468851,10.616732 21.639236,4.446348 z m -51.579836,-7.998366 0.126343,-10.25 1.510525,10.25 1.510525,10.25 h 3.863132 c 2.383775,0 3.891897,-0.478678 3.938249,-1.25 0.04131,-0.6875 0.662482,-4.85 1.380373,-9.25 l 1.305256,-8 0.119627,9.25 0.119626,9.25 h 5 5 V 39.566871 18.023062 l -7.25,0.293809 -7.25,0.29381 -1.120522,7.5 c -0.616287,4.125 -1.227358,7.05 -1.357936,6.5 -0.130578,-0.55 -0.751343,-3.925 -1.379478,-7.5 l -1.142064,-6.5 -7.25,-0.29381 -7.2500003,-0.293809 v 21.543809 21.54381 h 5.0000003 5 z"
         id="path3003" />
      <path
         style="fill:#414141"
         d="M 0.17112474,40.110681 V 0.11068122 h 40.00000026 40 v 39.99999978 40 h -40 H 0.17112474 Z M 69.877305,58.859047 c 6.119699,-6.119699 3.157592,-17.162536 -6.285446,-23.432361 -4.926343,-3.270908 -5.488987,-3.997349 -5.221042,-6.740988 0.397245,-4.067605 2.216347,-3.945817 2.613666,0.174983 0.384993,3.992957 11.186642,5.320635 11.186642,1.375 0,-14.004587 -20.81439,-17.700984 -24.798295,-4.403893 -2.188325,7.303975 0.414878,11.593084 11.932526,19.660359 2.700944,1.891815 3.140131,7.886992 0.615769,8.405635 -1.439096,0.29567 -1.75,-0.364117 -1.75,-3.713777 v -4.073324 h -5.5 c -6.183297,0 -6.548524,0.68398 -4.433056,8.302018 2.190532,7.888354 15.468851,10.616732 21.639236,4.446348 z m -51.579836,-7.998366 0.126343,-10.25 1.510525,10.25 1.510525,10.25 h 3.863132 c 2.383775,0 3.891897,-0.478678 3.938249,-1.25 0.04131,-0.6875 0.662482,-4.85 1.380373,-9.25 l 1.305256,-8 0.119627,9.25 0.119626,9.25 h 5 5 V 39.566871 18.023062 l -7.25,0.293809 -7.25,0.29381 -1.120522,7.5 c -0.616287,4.125 -1.227358,7.05 -1.357936,6.5 -0.130578,-0.55 -0.751343,-3.925 -1.379478,-7.5 l -1.142064,-6.5 -7.25,-0.29381 -7.2500003,-0.293809 v 21.543809 21.54381 h 5.0000003 5 z"
         id="path3001" />
      <path
         style="fill:#37404c"
         d="M 0.17112474,40.110681 V 0.11068122 h 40.00000026 40 v 39.99999978 40 h -40 H 0.17112474 Z M 69.877305,58.859047 c 6.119699,-6.119699 3.157592,-17.162536 -6.285446,-23.432361 -4.926343,-3.270908 -5.488987,-3.997349 -5.221042,-6.740988 0.397245,-4.067605 2.216347,-3.945817 2.613666,0.174983 0.384993,3.992957 11.186642,5.320635 11.186642,1.375 0,-13.935541 -20.579543,-17.674831 -24.849665,-4.515169 -2.320439,7.151128 0.419499,11.671616 11.983896,19.771635 2.700944,1.891815 3.140131,7.886992 0.615769,8.405635 -1.439096,0.29567 -1.75,-0.364117 -1.75,-3.713777 v -4.073324 h -5.5 c -6.183297,0 -6.548524,0.68398 -4.433056,8.302018 2.190532,7.888354 15.468851,10.616732 21.639236,4.446348 z m -51.579836,-7.998366 0.126343,-10.25 1.510525,10.25 1.510525,10.25 h 3.817819 c 4.237442,0 3.781242,0.986856 5.77845,-12.5 l 0.888514,-6 0.12074,9.25 0.12074,9.25 h 5 5 V 39.566871 18.023062 l -7.25,0.293809 -7.25,0.29381 -1.085569,7.5 c -1.202582,8.308418 -0.850478,8.732752 -3.319125,-4 l -0.678586,-3.5 -7.20836,-0.29381 -7.2083603,-0.293809 v 21.543809 21.54381 h 5.0000003 5 z"
         id="path2999" />
      <path
         style="fill:#363d49"
         d="M 0.17112474,40.110681 V 0.11068122 h 40.00000026 40 v 39.99999978 40 h -40 H 0.17112474 Z M 69.955542,58.780809 c 6.157308,-6.157308 3.202048,-17.002835 -6.363683,-23.354123 -4.926343,-3.270908 -5.488987,-3.997349 -5.221042,-6.740988 0.397245,-4.067605 2.216347,-3.945817 2.613666,0.174983 0.384993,3.992957 11.186642,5.320635 11.186642,1.375 0,-8.193422 -3.979074,-12.114782 -12.29966,-12.121262 -13.222233,-0.0103 -18.256607,13.983695 -7.85156,21.824896 9.600408,7.234828 12.878024,13.035924 7.90122,13.984474 -1.43484,0.273473 -1.75,-0.400031 -1.75,-3.739784 v -4.073324 h -5.5 c -6.183297,0 -6.548524,0.68398 -4.433056,8.302018 2.206987,7.947608 15.470283,10.6153 21.717473,4.36811 z m -51.658073,-7.920128 0.126343,-10.25 1.510525,10.25 1.510525,10.25 h 3.817819 c 4.237442,0 3.781242,0.986856 5.77845,-12.5 l 0.888514,-6 0.12074,9.25 0.12074,9.25 h 5 5 V 39.566871 18.023062 l -7.25,0.293809 -7.25,0.29381 -1.085569,7.5 c -1.202582,8.308418 -0.850478,8.732752 -3.319125,-4 l -0.678586,-3.5 -7.20836,-0.29381 -7.2083603,-0.293809 v 21.543809 21.54381 h 5.0000003 5 z"
         id="path2997" />
      <path
         style="fill:#3c3c3c"
         d="M 0.17112474,40.110681 V 0.11068122 h 40.00000026 40 v 39.99999978 40 h -40 H 0.17112474 Z M 69.955542,58.780809 c 6.243147,-6.243146 3.158656,-17.170327 -6.658235,-23.587604 -4.647419,-3.038006 -5.194509,-3.759754 -4.92705,-6.5 0.3976,-4.073586 2.216547,-3.957058 2.614226,0.167476 0.384993,3.992957 11.186642,5.320635 11.186642,1.375 0,-8.279577 -3.970705,-12.125291 -12.5,-12.10652 -15.686892,0.03452 -17.978156,15.331329 -3.764994,25.13564 4.873421,3.361711 6.639864,6.089409 5.753005,8.883653 -1.158728,3.650829 -3.488011,2.290011 -3.488011,-2.037773 v -4 h -5.5 c -6.183297,0 -6.548524,0.68398 -4.433056,8.302018 2.206987,7.947608 15.470283,10.6153 21.717473,4.36811 z m -51.658073,-7.920128 0.126343,-10.25 1.510525,10.25 1.510525,10.25 h 3.817819 c 4.237442,0 3.781242,0.986856 5.77845,-12.5 l 0.888514,-6 0.12074,9.25 0.12074,9.25 h 5 5 V 39.566871 18.023062 l -7.25,0.293809 -7.25,0.29381 -1.085569,7.5 c -1.202582,8.308418 -0.850478,8.732752 -3.319125,-4 l -0.678586,-3.5 -7.20836,-0.29381 -7.2083603,-0.293809 v 21.543809 21.54381 h 5.0000003 5 z"
         id="path2995" />
      <path
         style="fill:#343a44"
         d="M 0.17112474,40.110681 V 0.11068122 h 40.00000026 40 v 39.99999978 40 h -40 H 0.17112474 Z M 69.955542,58.780809 c 6.243147,-6.243146 3.158656,-17.170327 -6.658235,-23.587604 -4.647419,-3.038006 -5.194509,-3.759754 -4.92705,-6.5 0.3976,-4.073586 2.216547,-3.957058 2.614226,0.167476 0.384993,3.992957 11.186642,5.320635 11.186642,1.375 0,-8.279577 -3.970705,-12.125291 -12.5,-12.10652 -15.27632,0.03362 -17.99965,14.284277 -4.671828,24.446767 6.087771,4.641936 7.556506,6.747379 6.665423,9.554932 -1.163291,3.665207 -3.493595,2.317704 -3.493595,-2.020179 v -4 h -5.5 c -6.183297,0 -6.548524,0.68398 -4.433056,8.302018 2.206987,7.947608 15.470283,10.6153 21.717473,4.36811 z m -51.658073,-7.920128 0.126343,-10.25 1.510525,10.25 1.510525,10.25 h 3.817819 c 4.237442,0 3.781242,0.986856 5.77845,-12.5 l 0.888514,-6 0.12074,9.25 0.12074,9.25 h 5 5 V 39.566871 18.023062 l -7.25,0.293809 -7.25,0.29381 -1.085569,7.5 c -1.054302,7.283984 -1.106433,7.384791 -1.809971,3.5 -0.398422,-2.2 -1.050377,-5.575 -1.448789,-7.5 l -0.724387,-3.5 -7.215642,-0.29381 -7.2156423,-0.293809 v 21.543809 21.54381 h 5.0000003 5 z"
         id="path2993" />
      <path
         style="fill:#343a43"
         d="M 0.17112474,40.110681 V 0.11068122 h 40.00000026 40 v 39.99999978 40 h -40 H 0.17112474 Z M 69.955542,58.780809 c 6.086467,-6.086466 3.137336,-17.251695 -6.120049,-23.170128 -4.650245,-2.972996 -6.438031,-6.041482 -5.279278,-9.061146 0.917434,-2.390794 2.61491,-0.689908 2.61491,2.620163 0,2.898161 0.08008,2.940983 5.5,2.940983 6.025941,0 6.199967,-0.250167 4.854345,-6.978277 -1.808373,-9.041863 -19.250785,-9.777859 -23.556313,-0.993977 -3.258276,6.647339 -1.13734,12.209781 7.03014,18.437501 6.087771,4.641936 7.556506,6.747379 6.665423,9.554932 -1.163291,3.665207 -3.493595,2.317704 -3.493595,-2.020179 v -4 h -5.628831 -5.62883 l 0.688816,5.19255 c 1.416542,10.678421 14.706638,15.124202 22.353262,7.477578 z m -51.658073,-7.920128 0.126343,-10.25 1.510525,10.25 1.510525,10.25 h 3.817819 c 4.237442,0 3.781242,0.986856 5.77845,-12.5 l 0.888514,-6 0.12074,9.25 0.12074,9.25 h 5 5 V 39.566871 18.023062 l -7.25,0.293809 -7.25,0.29381 -1.085569,7.5 c -1.054302,7.283984 -1.106433,7.384791 -1.809971,3.5 -0.398422,-2.2 -1.050377,-5.575 -1.448789,-7.5 l -0.724387,-3.5 -7.215642,-0.29381 -7.2156423,-0.293809 v 21.543809 21.54381 h 5.0000003 5 z"
         id="path2991" />
      <path
         style="fill:#323840"
         d="M 0.17112474,40.110681 V 0.11068122 h 40.00000026 40 v 39.99999978 40 h -40 H 0.17112474 Z M 69.948744,58.787607 c 6.153448,-6.153448 3.240598,-17.196822 -6.113251,-23.176926 -4.650245,-2.972996 -6.438031,-6.041482 -5.279278,-9.061146 0.917434,-2.390794 2.61491,-0.689908 2.61491,2.620163 0,2.898161 0.08008,2.940983 5.5,2.940983 5.417334,0 5.5,-0.04411 5.5,-2.9349 0,-7.363142 -4.267541,-11.076259 -12.70034,-11.050358 -15.083172,0.04633 -17.701341,14.362716 -4.471488,24.450505 6.087771,4.641936 7.556506,6.747379 6.665423,9.554932 -1.163291,3.665207 -3.493595,2.317704 -3.493595,-2.020179 v -4 h -5.628831 -5.62883 l 0.688816,5.19255 c 1.415808,10.672882 14.706561,15.124279 22.346464,7.484376 z m -51.651275,-7.926926 0.126343,-10.25 1.510525,10.25 1.510525,10.25 h 3.817819 c 4.237442,0 3.781242,0.986856 5.77845,-12.5 l 0.888514,-6 0.12074,9.25 0.12074,9.25 h 5 5 V 39.566871 18.023062 l -7.25,0.293809 -7.25,0.29381 -1.085569,7.5 c -1.054302,7.283984 -1.106433,7.384791 -1.809971,3.5 -0.398422,-2.2 -1.050377,-5.575 -1.448789,-7.5 l -0.724387,-3.5 -7.215642,-0.29381 -7.2156423,-0.293809 v 21.543809 21.54381 h 5.0000003 5 z"
         id="path2989" />
      <path
         style="fill:#31353c"
         d="M 0.17112474,40.110681 V 0.11068122 h 40.00000026 40 v 39.99999978 40 h -40 H 0.17112474 Z M 69.948744,58.787607 c 6.15663,-6.15663 3.406549,-16.522811 -6.28224,-23.68034 -5.523369,-4.080351 -7.706666,-8.996586 -3.995379,-8.996586 1,0 1.5,1 1.5,3 0,2.969697 0.05556,3 5.5,3 5.417334,0 5.5,-0.04411 5.5,-2.9349 0,-7.996064 -4.68213,-11.545475 -14.311193,-10.848971 -13.978227,1.011093 -15.527389,14.592794 -2.773577,24.316316 5.499128,4.192542 7.484352,7.262685 6.445969,9.968669 -1.302275,3.393675 -3.361199,1.523312 -3.361199,-3.053374 v -4.552259 l -5.25,0.302259 -5.25,0.30226 0.141419,5.301278 c 0.284913,10.680371 14.333317,15.678532 22.1362,7.875648 z m -51.651275,-7.926926 0.126343,-10.25 1.510525,10.25 1.510525,10.25 h 3.817819 c 4.237442,0 3.781242,0.986856 5.77845,-12.5 l 0.888514,-6 0.12074,9.25 0.12074,9.25 h 5 5 V 39.566871 18.023062 l -7.25,0.293809 -7.25,0.29381 -1.085569,7.5 c -1.054302,7.283984 -1.106433,7.384791 -1.809971,3.5 -0.398422,-2.2 -1.050377,-5.575 -1.448789,-7.5 l -0.724387,-3.5 -7.215642,-0.29381 -7.2156423,-0.293809 v 21.543809 21.54381 h 5.0000003 5 z"
         id="path2987" />
      <path
         style="fill:#363636"
         d="M 0.17112474,40.110681 V 0.11068122 h 40.00000026 40 v 39.99999978 40 h -40 H 0.17112474 Z M 67.72263,60.519216 c 4.193825,-1.9901 5.89176,-6.550181 4.960401,-13.321968 -0.69902,-5.082483 -2.639883,-7.50747 -10.761906,-13.446332 -3.914214,-2.862092 -5.321347,-7.640235 -2.25,-7.640235 1,0 1.5,1 1.5,3 0,2.969697 0.05556,3 5.5,3 5.417334,0 5.5,-0.04411 5.5,-2.9349 0,-7.996064 -4.68213,-11.545475 -14.311193,-10.848971 -13.978227,1.011093 -15.527389,14.592794 -2.773577,24.316316 5.499128,4.192542 7.484352,7.262685 6.445969,9.968669 -1.302275,3.393675 -3.361199,1.523312 -3.361199,-3.053374 v -4.552259 l -5.25,0.302259 -5.25,0.30226 0.141419,5.301278 c 0.261363,9.797569 9.804743,14.402556 19.910086,9.607257 z m -49.425161,-9.658535 0.126343,-10.25 1.510525,10.25 1.510525,10.25 h 3.817819 c 4.237442,0 3.781242,0.986856 5.77845,-12.5 l 0.888514,-6 0.12074,9.25 0.12074,9.25 h 5 5 V 39.566871 18.023062 l -7.25,0.293809 -7.25,0.29381 -1.085569,7.5 c -1.054302,7.283984 -1.106433,7.384791 -1.809971,3.5 -0.398422,-2.2 -1.050377,-5.575 -1.448789,-7.5 l -0.724387,-3.5 -7.215642,-0.29381 -7.2156423,-0.293809 v 21.543809 21.54381 h 5.0000003 5 z"
         id="path2985" />
      <path
         style="fill:#2f3338"
         d="M 0.17112474,40.110681 V 0.11068122 h 40.00000026 40 v 39.99999978 40 h -40 H 0.17112474 Z M 67.72263,60.519216 c 4.193825,-1.9901 5.89176,-6.550181 4.960401,-13.321968 -0.69902,-5.082483 -2.639883,-7.50747 -10.761906,-13.446332 -3.914214,-2.862092 -5.321347,-7.640235 -2.25,-7.640235 1,0 1.5,1 1.5,3 0,2.969697 0.05556,3 5.5,3 5.417334,0 5.5,-0.04411 5.5,-2.9349 0,-7.996064 -4.68213,-11.545475 -14.311193,-10.848971 -13.978227,1.011093 -15.527389,14.592794 -2.773577,24.316316 5.499128,4.192542 7.484352,7.262685 6.445969,9.968669 -1.302275,3.393675 -3.361199,1.523312 -3.361199,-3.053374 v -4.552259 l -5.25,0.302259 -5.25,0.30226 0.141419,5.301278 c 0.261363,9.797569 9.804743,14.402556 19.910086,9.607257 z m -49.425161,-9.658535 0.126343,-10.25 1.510525,10.25 1.510525,10.25 h 3.817819 c 4.244048,0 3.984528,0.557315 5.820779,-12.5 l 0.843781,-6 0.121942,9.25 0.121942,9.25 h 5.519888 5.519887 l -0.269887,-21.25 -0.269888,-21.25 h -7.5 -7.5 l -1.064368,7.5 c -1.133056,7.984003 -1.529311,7.556339 -3.011301,-3.25 l -0.651419,-4.75 H 15.557581 8.1711247 v 21.5 21.5 h 5.0000003 5 z"
         id="path2983" />
      <path
         style="fill:#2e3135"
         d="M 0.17112474,40.110681 V 0.11068122 h 40.00000026 40 v 39.99999978 40 h -40 H 0.17112474 Z M 67.72263,60.519216 c 4.193825,-1.9901 5.89176,-6.550181 4.960401,-13.321968 -0.69902,-5.082483 -2.639883,-7.50747 -10.761906,-13.446332 -3.914214,-2.862092 -5.321347,-7.640235 -2.25,-7.640235 1,0 1.5,1 1.5,3 0,2.969697 0.05556,3 5.5,3 5.417334,0 5.5,-0.04411 5.5,-2.9349 0,-7.594752 -4.242557,-11.0651 -13.527263,-11.0651 -14.442651,0 -16.545037,14.709834 -3.514328,24.588818 5.34559,4.052657 7.583335,7.916588 6.035349,10.421282 -1.369289,2.215556 -2.993758,-0.02078 -2.993758,-4.121377 v -3.993242 l -5.25,0.302259 -5.25,0.30226 0.141419,5.301278 c 0.261363,9.797569 9.804743,14.402556 19.910086,9.607257 z m -49.425161,-9.658535 0.126343,-10.25 1.510525,10.25 1.510525,10.25 h 3.817819 c 4.244048,0 3.984528,0.557315 5.820779,-12.5 l 0.843781,-6 0.121942,9.25 0.121942,9.25 h 5.519888 5.519887 l -0.269887,-21.25 -0.269888,-21.25 h -7.5 -7.5 l -1.064368,7.5 c -1.133056,7.984003 -1.529311,7.556339 -3.011301,-3.25 l -0.651419,-4.75 H 15.557581 8.1711247 v 21.5 21.5 h 5.0000003 5 z"
         id="path2981" />
      <path
         style="fill:#313131"
         d="M 0.17112474,40.110681 V 0.11068122 h 40.00000026 40 v 39.99999978 40 h -40 H 0.17112474 Z M 67.593753,60.707456 c 9.247497,-3.863851 7.296541,-17.375317 -3.672628,-25.435004 -5.760641,-4.232678 -8.047169,-9.161771 -4.25,-9.161771 1,0 1.5,1 1.5,3 0,2.978097 0.04111,3 5.630052,3 h 5.630053 l -0.519841,-4.61201 c -0.771104,-6.841216 -3.17446,-8.734137 -11.701057,-9.215932 -16.020845,-0.905259 -18.91323,13.969452 -4.789207,24.629528 5.085049,3.83793 5.75,4.746015 5.75,7.85244 0,5.071345 -2.422169,3.750828 -2.80995,-1.531927 l -0.30995,-4.22246 -5.19005,0.300181 -5.19005,0.30018 0.141419,5.301278 c 0.259253,9.718484 9.277477,14.184236 19.781209,9.795497 z m -49.296284,-9.846775 0.126343,-10.25 1.510525,10.25 1.510525,10.25 h 3.817819 c 4.244048,0 3.984528,0.557315 5.820779,-12.5 l 0.843781,-6 0.121942,9.25 0.121942,9.25 h 5.519888 5.519887 l -0.269887,-21.25 -0.269888,-21.25 h -7.5 -7.5 l -1.064368,7.5 c -1.133056,7.984003 -1.529311,7.556339 -3.011301,-3.25 l -0.651419,-4.75 H 15.557581 8.1711247 v 21.5 21.5 h 5.0000003 5 z"
         id="path2979" />
      <path
         style="fill:#2d2e31"
         d="M 0.17112474,40.110681 V 0.11068122 h 40.00000026 40 v 39.99999978 40 h -40 H 0.17112474 Z M 67.593753,60.707456 c 9.247497,-3.863851 7.296541,-17.375317 -3.672628,-25.435004 -5.760641,-4.232678 -8.047169,-9.161771 -4.25,-9.161771 1,0 1.5,1 1.5,3 0,2.978097 0.04111,3 5.630052,3 h 5.630053 l -0.519841,-4.61201 c -1.49786,-13.288977 -22.818146,-13.150679 -25.316036,0.164218 -0.993237,5.294405 1.583595,9.741279 8.825772,15.230754 5.081514,3.851721 5.75,4.766798 5.75,7.871064 0,5.071345 -2.422169,3.750828 -2.80995,-1.531927 l -0.30995,-4.22246 -5.19005,0.300181 -5.19005,0.30018 0.141419,5.301278 c 0.259253,9.718484 9.277477,14.184236 19.781209,9.795497 z m -49.284069,-9.346775 0.138559,-9.75 1.517621,9.75 1.51762,9.75 h 3.798507 c 4.221524,0 3.966241,0.550039 5.801469,-12.5 l 0.843781,-6 0.121942,9.25 0.121942,9.25 h 5.519888 5.519887 l -0.269887,-21.25 -0.269888,-21.25 h -7.5 -7.5 l -1.064368,7.5 c -1.133056,7.984003 -1.529311,7.556339 -3.011301,-3.25 l -0.651419,-4.75 H 15.557581 8.1711247 v 21.5 21.5 h 5.0000003 5 z"
         id="path2977" />
      <path
         style="fill:#2d2d2d"
         d="M 0.17112474,40.110681 V 0.11068122 h 40.00000026 40 v 39.99999978 40 h -40 H 0.17112474 Z M 67.639882,60.688182 c 9.276403,-3.875929 7.31049,-17.3119 -3.718757,-25.41573 -5.760641,-4.232678 -8.047169,-9.161771 -4.25,-9.161771 1,0 1.5,1 1.5,3 0,2.978097 0.04111,3 5.630052,3 h 5.630053 l -0.519841,-4.61201 c -1.49786,-13.288977 -22.818146,-13.150679 -25.316036,0.164218 -0.993237,5.294405 1.583595,9.741279 8.825772,15.230754 5.081514,3.851721 5.75,4.766798 5.75,7.871064 0,5.071345 -2.422169,3.750828 -2.80995,-1.531927 l -0.30995,-4.22246 -5.19005,0.300181 -5.19005,0.30018 0.141419,5.301278 c 0.259763,9.737584 9.277815,14.184095 19.827338,9.776223 z m -49.330198,-9.327501 0.138559,-9.75 1.517621,9.75 1.51762,9.75 h 3.798507 c 4.221524,0 3.966241,0.550039 5.801469,-12.5 l 0.843781,-6 0.121942,9.25 0.121942,9.25 h 5.519888 5.519887 l -0.269887,-21.25 -0.269888,-21.25 h -7.5 -7.5 l -1.064368,7.5 c -1.133056,7.984003 -1.529311,7.556339 -3.011301,-3.25 l -0.651419,-4.75 H 15.557581 8.1711247 v 21.5 21.5 h 5.0000003 5 z"
         id="path2975" />
      <path
         style="fill:#29292a"
         d="M 0.17112474,40.110681 V 0.11068122 h 40.00000026 40 v 39.99999978 40 h -40 H 0.17112474 Z M 67.639882,60.688182 c 9.276403,-3.875929 7.31049,-17.3119 -3.718757,-25.41573 -5.760641,-4.232678 -8.047169,-9.161771 -4.25,-9.161771 1,0 1.5,1 1.5,3 0,2.969697 0.05556,3 5.5,3 h 5.5 l -0.01474,-3.25 C 72.103034,17.099243 54.417194,13.099108 48.121352,23.424503 c -4.056098,6.65214 -1.688809,12.861238 7.488253,19.640731 4.933635,3.64469 5.56152,4.509525 5.56152,7.660324 0,5.10265 -2.42019,3.81693 -2.80995,-1.492778 l -0.30995,-4.22246 -5.19005,0.300181 -5.19005,0.30018 0.141419,5.301278 c 0.259763,9.737584 9.277815,14.184095 19.827338,9.776223 z m -49.351728,-9.327501 0.117029,-9.75 1.533356,9.75 1.533355,9.75 h 3.804303 c 4.228282,0 3.971727,0.55223 5.807263,-12.5 l 0.843781,-6 0.121942,9.25 0.121942,9.25 h 5.519888 5.519887 l -0.269887,-21.25 -0.269888,-21.25 h -7.5 -7.5 l -1.064368,7.5 c -1.133056,7.984003 -1.529311,7.556339 -3.011301,-3.25 l -0.651419,-4.75 H 15.557581 8.1711247 v 21.5 21.5 h 5.0000003 5 z"
         id="path2973" />
    </g>
    <path
       style="fill:#000000"
       id="path445"
       d="" />
  </g>
</svg>
